<svg xmlns="http://www.w3.org/2000/svg" xmlns:xlink="http://www.w3.org/1999/xlink" contentStyleType="text/css" data-diagram-type="CLASS" height="728.1px" preserveAspectRatio="none" style="width:1721px;height:728px;background:#FFFFFF;" version="1.1" viewBox="0 0 1721 728" width="1721.7px" zoomAndPan="magnify"><defs/><g><!--cluster SecureTalk Domain--><g class="cluster" data-entity="SecureTalk Domain" data-source-line="5" data-uid="ent0002" id="cluster_SecureTalk Domain"><path d="M7.65,150.3 L125.4938,150.3 A3.375,3.375 0 0 1 127.7438,152.55 L134.0438,172.459 L1062.45,172.459 A2.25,2.25 0 0 1 1064.7,174.709 L1064.7,719.55 A2.25,2.25 0 0 1 1062.45,721.8 L7.65,721.8 A2.25,2.25 0 0 1 5.4,719.55 L5.4,152.55 A2.25,2.25 0 0 1 7.65,150.3" fill="none" style="stroke:#000000;stroke-width:1.35;"/><line style="stroke:#000000;stroke-width:1.35;" x1="5.4" x2="134.0438" y1="172.459" y2="172.459"/><text fill="#000000" font-family="sans-serif" font-size="12.6" font-weight="bold" lengthAdjust="spacing" textLength="116.9438" x="9" y="165.6967">SecureTalk Domain</text></g><!--class Message--><g class="entity" data-entity="Message" data-source-line="7" data-uid="ent0003" id="entity_Message"><rect fill="#F1F1F1" height="205.3547" rx="2.25" ry="2.25" style="stroke:#181818;stroke-width:0.45;" width="185.8711" x="214.65" y="183.6"/><ellipse cx="261.7277" cy="203.6619" fill="#ADD1B2" rx="9.9" ry="9.9" style="stroke:#181818;stroke-width:0.9;"/><path d="M264.2168,199.9494 Q264.3574,199.7525 264.5262,199.6541 Q264.6949,199.5557 264.8918,199.5557 Q265.2293,199.5557 265.4402,199.7947 Q265.6512,200.0197 265.6512,200.5682 L265.6512,201.876 Q265.6512,202.4244 265.4402,202.6635 Q265.2293,202.9025 264.8918,202.9025 Q264.5824,202.9025 264.3996,202.7197 Q264.2168,202.551 264.1184,202.0869 Q264.0762,201.7635 263.9074,201.5947 Q263.6121,201.2572 263.0637,201.0604 Q262.5152,200.8635 261.9527,200.8635 Q261.2637,200.8635 260.6871,201.1588 Q260.1246,201.4541 259.6746,202.1291 Q259.2387,202.8041 259.2387,203.7322 L259.2387,204.7166 Q259.2387,205.8275 260.0402,206.5729 Q260.8418,207.3041 262.2762,207.3041 Q263.1199,207.3041 263.7105,207.0791 Q264.0621,206.9385 264.4418,206.5447 Q264.6809,206.3057 264.8074,206.2354 Q264.948,206.165 265.1309,206.165 Q265.4262,206.165 265.6512,206.4041 Q265.8902,206.6291 265.8902,206.9385 Q265.8902,207.2479 265.5809,207.6135 Q265.1309,208.1338 264.4137,208.4291 Q263.4434,208.8369 262.2762,208.8369 Q260.9121,208.8369 259.8293,208.2744 Q258.9434,207.8244 258.3246,206.8682 Q257.7059,205.8979 257.7059,204.7447 L257.7059,203.7041 Q257.7059,202.5088 258.2543,201.4822 Q258.8168,200.4416 259.8012,199.8932 Q260.7855,199.3307 261.8965,199.3307 Q262.5574,199.3307 263.134,199.4854 Q263.7246,199.626 264.2168,199.9494 Z " fill="#000000"/><text fill="#000000" font-family="sans-serif" font-size="10.8" font-style="italic" lengthAdjust="spacing" textLength="87.6656" x="278.3777" y="199.7543">&#171;Aggregate Root&#187;</text><text fill="#000000" font-family="sans-serif" font-size="12.6" lengthAdjust="spacing" textLength="51.126" x="296.6476" y="216.0615">Message</text><line style="stroke:#181818;stroke-width:0.45;" x1="215.55" x2="399.6211" y1="223.7238" y2="223.7238"/><text fill="#000000" font-family="sans-serif" font-size="12.6" lengthAdjust="spacing" textLength="96.6656" x="220.05" y="240.9205">messageId: Long</text><text fill="#000000" font-family="sans-serif" font-size="12.6" lengthAdjust="spacing" textLength="173.6991" x="220.05" y="257.6795">conversationId: ConversationId</text><text fill="#000000" font-family="sans-serif" font-size="12.6" lengthAdjust="spacing" textLength="93.1465" x="220.05" y="274.4385">senderId: UserId</text><text fill="#000000" font-family="sans-serif" font-size="12.6" lengthAdjust="spacing" textLength="99.4342" x="220.05" y="291.1975">receiverId: UserId</text><text fill="#000000" font-family="sans-serif" font-size="12.6" lengthAdjust="spacing" textLength="143.5896" x="220.05" y="307.9564">content: MessageContent</text><text fill="#000000" font-family="sans-serif" font-size="12.6" lengthAdjust="spacing" textLength="127.4581" x="220.05" y="324.7154">sentAt: LocalDateTime</text><text fill="#000000" font-family="sans-serif" font-size="12.6" lengthAdjust="spacing" textLength="127.4643" x="220.05" y="341.4744">status: MessageStatus</text><text fill="#000000" font-family="sans-serif" font-size="12.6" lengthAdjust="spacing" textLength="98.0684" x="220.05" y="358.2334">isEdited: Boolean</text><text fill="#000000" font-family="sans-serif" font-size="12.6" lengthAdjust="spacing" textLength="175.0711" x="220.05" y="374.9924">lastEditedTime: LocalDateTime</text><line style="stroke:#181818;stroke-width:0.45;" x1="215.55" x2="399.6211" y1="381.7547" y2="381.7547"/></g><!--class UserId--><g class="entity" data-entity="UserId" data-source-line="19" data-uid="ent0004" id="entity_UserId"><rect fill="#F1F1F1" height="71.2828" rx="2.25" ry="2.25" style="stroke:#181818;stroke-width:0.45;" width="99.0492" x="310.5" y="636.3"/><ellipse cx="324" cy="656.3619" fill="#ADD1B2" rx="9.9" ry="9.9" style="stroke:#181818;stroke-width:0.9;"/><path d="M326.4891,652.6494 Q326.6297,652.4525 326.7984,652.3541 Q326.9672,652.2557 327.1641,652.2557 Q327.5016,652.2557 327.7125,652.4947 Q327.9234,652.7197 327.9234,653.2682 L327.9234,654.576 Q327.9234,655.1244 327.7125,655.3635 Q327.5016,655.6025 327.1641,655.6025 Q326.8547,655.6025 326.6719,655.4197 Q326.4891,655.251 326.3906,654.7869 Q326.3484,654.4635 326.1797,654.2947 Q325.8844,653.9572 325.3359,653.7604 Q324.7875,653.5635 324.225,653.5635 Q323.5359,653.5635 322.9594,653.8588 Q322.3969,654.1541 321.9469,654.8291 Q321.5109,655.5041 321.5109,656.4322 L321.5109,657.4166 Q321.5109,658.5275 322.3125,659.2729 Q323.1141,660.0041 324.5484,660.0041 Q325.3922,660.0041 325.9828,659.7791 Q326.3344,659.6385 326.7141,659.2447 Q326.9531,659.0057 327.0797,658.9354 Q327.2203,658.865 327.4031,658.865 Q327.6984,658.865 327.9234,659.1041 Q328.1625,659.3291 328.1625,659.6385 Q328.1625,659.9479 327.8531,660.3135 Q327.4031,660.8338 326.6859,661.1291 Q325.7156,661.5369 324.5484,661.5369 Q323.1844,661.5369 322.1016,660.9744 Q321.2156,660.5244 320.5969,659.5682 Q319.9781,658.5979 319.9781,657.4447 L319.9781,656.4041 Q319.9781,655.2088 320.5266,654.1822 Q321.0891,653.1416 322.0734,652.5932 Q323.0578,652.0307 324.1688,652.0307 Q324.8297,652.0307 325.4063,652.1854 Q325.9969,652.326 326.4891,652.6494 Z " fill="#000000"/><text fill="#000000" font-family="sans-serif" font-size="10.8" font-style="italic" lengthAdjust="spacing" textLength="73.8492" x="334.8" y="652.4543">&#171;Value Object&#187;</text><text fill="#000000" font-family="sans-serif" font-size="12.6" lengthAdjust="spacing" textLength="37.1109" x="353.1691" y="668.7615">UserId</text><line style="stroke:#181818;stroke-width:0.45;" x1="311.4" x2="408.6492" y1="676.4238" y2="676.4238"/><text fill="#000000" font-family="sans-serif" font-size="12.6" lengthAdjust="spacing" textLength="65.1533" x="315.9" y="693.6205">value: Long</text><line style="stroke:#181818;stroke-width:0.45;" x1="311.4" x2="408.6492" y1="700.3828" y2="700.3828"/></g><!--class MessageContent--><g class="entity" data-entity="MessageContent" data-source-line="23" data-uid="ent0005" id="entity_MessageContent"><rect fill="#F1F1F1" height="71.2828" rx="2.25" ry="2.25" style="stroke:#181818;stroke-width:0.45;" width="124.0567" x="245.7" y="468.9"/><ellipse cx="259.2" cy="488.9619" fill="#ADD1B2" rx="9.9" ry="9.9" style="stroke:#181818;stroke-width:0.9;"/><path d="M261.6891,485.2494 Q261.8297,485.0525 261.9984,484.9541 Q262.1672,484.8557 262.3641,484.8557 Q262.7016,484.8557 262.9125,485.0947 Q263.1234,485.3197 263.1234,485.8682 L263.1234,487.176 Q263.1234,487.7244 262.9125,487.9635 Q262.7016,488.2025 262.3641,488.2025 Q262.0547,488.2025 261.8719,488.0197 Q261.6891,487.851 261.5906,487.3869 Q261.5484,487.0635 261.3797,486.8947 Q261.0844,486.5572 260.5359,486.3604 Q259.9875,486.1635 259.425,486.1635 Q258.7359,486.1635 258.1594,486.4588 Q257.5969,486.7541 257.1469,487.4291 Q256.7109,488.1041 256.7109,489.0322 L256.7109,490.0166 Q256.7109,491.1275 257.5125,491.8729 Q258.3141,492.6041 259.7484,492.6041 Q260.5922,492.6041 261.1828,492.3791 Q261.5344,492.2385 261.9141,491.8447 Q262.1531,491.6057 262.2797,491.5354 Q262.4203,491.465 262.6031,491.465 Q262.8984,491.465 263.1234,491.7041 Q263.3625,491.9291 263.3625,492.2385 Q263.3625,492.5479 263.0531,492.9135 Q262.6031,493.4338 261.8859,493.7291 Q260.9156,494.1369 259.7484,494.1369 Q258.3844,494.1369 257.3016,493.5744 Q256.4156,493.1244 255.7969,492.1682 Q255.1781,491.1979 255.1781,490.0447 L255.1781,489.0041 Q255.1781,487.8088 255.7266,486.7822 Q256.2891,485.7416 257.2734,485.1932 Q258.2578,484.6307 259.3688,484.6307 Q260.0297,484.6307 260.6063,484.7854 Q261.1969,484.926 261.6891,485.2494 Z " fill="#000000"/><text fill="#000000" font-family="sans-serif" font-size="10.8" font-style="italic" lengthAdjust="spacing" textLength="73.8492" x="282.5038" y="485.0543">&#171;Value Object&#187;</text><text fill="#000000" font-family="sans-serif" font-size="12.6" lengthAdjust="spacing" textLength="95.2567" x="271.8" y="501.3615">MessageContent</text><line style="stroke:#181818;stroke-width:0.45;" x1="246.6" x2="368.8567" y1="509.0238" y2="509.0238"/><text fill="#000000" font-family="sans-serif" font-size="12.6" lengthAdjust="spacing" textLength="81.2479" x="251.1" y="526.2205">content: String</text><line style="stroke:#181818;stroke-width:0.45;" x1="246.6" x2="368.8567" y1="532.9828" y2="532.9828"/></g><!--class ConversationId--><g class="entity" data-entity="ConversationId" data-source-line="27" data-uid="ent0006" id="entity_ConversationId"><rect fill="#F1F1F1" height="71.2828" rx="2.25" ry="2.25" style="stroke:#181818;stroke-width:0.45;" width="113.5485" x="401.4" y="468.9"/><ellipse cx="414.9" cy="488.9619" fill="#ADD1B2" rx="9.9" ry="9.9" style="stroke:#181818;stroke-width:0.9;"/><path d="M417.3891,485.2494 Q417.5297,485.0525 417.6984,484.9541 Q417.8672,484.8557 418.0641,484.8557 Q418.4016,484.8557 418.6125,485.0947 Q418.8234,485.3197 418.8234,485.8682 L418.8234,487.176 Q418.8234,487.7244 418.6125,487.9635 Q418.4016,488.2025 418.0641,488.2025 Q417.7547,488.2025 417.5719,488.0197 Q417.3891,487.851 417.2906,487.3869 Q417.2484,487.0635 417.0797,486.8947 Q416.7844,486.5572 416.2359,486.3604 Q415.6875,486.1635 415.125,486.1635 Q414.4359,486.1635 413.8594,486.4588 Q413.2969,486.7541 412.8469,487.4291 Q412.4109,488.1041 412.4109,489.0322 L412.4109,490.0166 Q412.4109,491.1275 413.2125,491.8729 Q414.0141,492.6041 415.4484,492.6041 Q416.2922,492.6041 416.8828,492.3791 Q417.2344,492.2385 417.6141,491.8447 Q417.8531,491.6057 417.9797,491.5354 Q418.1203,491.465 418.3031,491.465 Q418.5984,491.465 418.8234,491.7041 Q419.0625,491.9291 419.0625,492.2385 Q419.0625,492.5479 418.7531,492.9135 Q418.3031,493.4338 417.5859,493.7291 Q416.6156,494.1369 415.4484,494.1369 Q414.0844,494.1369 413.0016,493.5744 Q412.1156,493.1244 411.4969,492.1682 Q410.8781,491.1979 410.8781,490.0447 L410.8781,489.0041 Q410.8781,487.8088 411.4266,486.7822 Q411.9891,485.7416 412.9734,485.1932 Q413.9578,484.6307 415.0688,484.6307 Q415.7297,484.6307 416.3063,484.7854 Q416.8969,484.926 417.3891,485.2494 Z " fill="#000000"/><text fill="#000000" font-family="sans-serif" font-size="10.8" font-style="italic" lengthAdjust="spacing" textLength="73.8492" x="432.9497" y="485.0543">&#171;Value Object&#187;</text><text fill="#000000" font-family="sans-serif" font-size="12.6" lengthAdjust="spacing" textLength="84.7485" x="427.5" y="501.3615">ConversationId</text><line style="stroke:#181818;stroke-width:0.45;" x1="402.3" x2="514.0485" y1="509.0238" y2="509.0238"/><text fill="#000000" font-family="sans-serif" font-size="12.6" lengthAdjust="spacing" textLength="49.7232" x="406.8" y="526.2205">id: String</text><line style="stroke:#181818;stroke-width:0.45;" x1="402.3" x2="514.0485" y1="532.9828" y2="532.9828"/></g><!--class MessageStatus--><g class="entity" data-entity="MessageStatus" data-source-line="31" data-uid="ent0007" id="entity_MessageStatus"><rect fill="#F1F1F1" height="104.8008" rx="2.25" ry="2.25" style="stroke:#181818;stroke-width:0.45;" width="115.6465" x="546.3" y="452.25"/><ellipse cx="559.8" cy="472.3119" fill="#EB937F" rx="9.9" ry="9.9" style="stroke:#181818;stroke-width:0.9;"/><path d="M558.7734,473.0291 L558.7734,475.2791 L562.6688,475.2791 L562.6688,474.4494 Q562.6688,473.901 562.8797,473.6619 Q563.1047,473.4229 563.4422,473.4229 Q563.7797,473.4229 563.9906,473.6619 Q564.2016,473.901 564.2016,474.4494 L564.2016,476.8119 L557.0016,476.8119 Q556.4391,476.8119 556.2,476.601 Q555.975,476.39 555.975,476.0385 Q555.975,475.701 556.2141,475.49 Q556.4531,475.2791 557.0016,475.2791 L557.2406,475.2791 L557.2406,469.2885 L557.0016,469.2885 Q556.4391,469.2885 556.2,469.0775 Q555.975,468.8666 555.975,468.515 Q555.975,468.1775 556.2,467.9666 Q556.4391,467.7557 557.0016,467.7557 L563.8641,467.7557 L563.8641,470.09 Q563.8641,470.6385 563.6531,470.8775 Q563.4563,471.1025 563.1047,471.1025 Q562.7672,471.1025 562.5563,470.8775 Q562.3453,470.6385 562.3453,470.09 L562.3453,469.2885 L558.7734,469.2885 L558.7734,471.4963 L560.1094,471.4963 Q560.1094,470.9057 560.2219,470.7369 Q560.4609,470.3713 560.8828,470.3713 Q561.2203,470.3713 561.4313,470.6104 Q561.6422,470.8354 561.6422,471.3838 L561.6422,473.1557 Q561.6422,473.6479 561.5297,473.8166 Q561.2906,474.1682 560.8828,474.1682 Q560.4609,474.1682 560.2219,473.8025 Q560.1094,473.6338 560.1094,473.0291 L558.7734,473.0291 Z " fill="#000000"/><text fill="#000000" font-family="sans-serif" font-size="10.8" font-style="italic" lengthAdjust="spacing" textLength="73.248" x="579.1992" y="468.4043">&#171;Enumeration&#187;</text><text fill="#000000" font-family="sans-serif" font-size="12.6" lengthAdjust="spacing" textLength="86.8465" x="572.4" y="484.7115">MessageStatus</text><line style="stroke:#181818;stroke-width:0.45;" x1="547.2" x2="661.0465" y1="492.3738" y2="492.3738"/><text fill="#000000" font-family="sans-serif" font-size="12.6" lengthAdjust="spacing" textLength="33.6041" x="551.7" y="509.5705">SENT</text><text fill="#000000" font-family="sans-serif" font-size="12.6" lengthAdjust="spacing" textLength="71.4226" x="551.7" y="526.3295">DELIVERED</text><text fill="#000000" font-family="sans-serif" font-size="12.6" lengthAdjust="spacing" textLength="35.0068" x="551.7" y="543.0885">READ</text><line style="stroke:#181818;stroke-width:0.45;" x1="547.2" x2="661.0465" y1="549.8508" y2="549.8508"/></g><!--class MessageSent--><g class="entity" data-entity="MessageSent" data-source-line="37" data-uid="ent0008" id="entity_MessageSent"><rect fill="#F1F1F1" height="138.3188" rx="2.25" ry="2.25" style="stroke:#181818;stroke-width:0.45;" width="184.4991" x="433.35" y="216.9"/><ellipse cx="483.2517" cy="236.9619" fill="#ADD1B2" rx="9.9" ry="9.9" style="stroke:#181818;stroke-width:0.9;"/><path d="M485.7407,233.2494 Q485.8813,233.0525 486.0501,232.9541 Q486.2188,232.8557 486.4157,232.8557 Q486.7532,232.8557 486.9642,233.0947 Q487.1751,233.3197 487.1751,233.8682 L487.1751,235.176 Q487.1751,235.7244 486.9642,235.9635 Q486.7532,236.2025 486.4157,236.2025 Q486.1063,236.2025 485.9235,236.0197 Q485.7407,235.851 485.6423,235.3869 Q485.6001,235.0635 485.4313,234.8947 Q485.136,234.5572 484.5876,234.3604 Q484.0392,234.1635 483.4767,234.1635 Q482.7876,234.1635 482.211,234.4588 Q481.6485,234.7541 481.1985,235.4291 Q480.7626,236.1041 480.7626,237.0322 L480.7626,238.0166 Q480.7626,239.1275 481.5642,239.8729 Q482.3657,240.6041 483.8001,240.6041 Q484.6438,240.6041 485.2345,240.3791 Q485.586,240.2385 485.9657,239.8447 Q486.2048,239.6057 486.3313,239.5354 Q486.472,239.465 486.6548,239.465 Q486.9501,239.465 487.1751,239.7041 Q487.4142,239.9291 487.4142,240.2385 Q487.4142,240.5479 487.1048,240.9135 Q486.6548,241.4338 485.9376,241.7291 Q484.9673,242.1369 483.8001,242.1369 Q482.436,242.1369 481.3532,241.5744 Q480.4673,241.1244 479.8485,240.1682 Q479.2298,239.1979 479.2298,238.0447 L479.2298,237.0041 Q479.2298,235.8088 479.7782,234.7822 Q480.3407,233.7416 481.3251,233.1932 Q482.3095,232.6307 483.4204,232.6307 Q484.0813,232.6307 484.6579,232.7854 Q485.2485,232.926 485.7407,233.2494 Z " fill="#000000"/><text fill="#000000" font-family="sans-serif" font-size="10.8" font-style="italic" lengthAdjust="spacing" textLength="79.8451" x="500.302" y="233.0543">&#171;Domain Event&#187;</text><text fill="#000000" font-family="sans-serif" font-size="12.6" lengthAdjust="spacing" textLength="77.0458" x="501.7017" y="249.3615">MessageSent</text><line style="stroke:#181818;stroke-width:0.45;" x1="434.25" x2="616.9491" y1="257.0238" y2="257.0238"/><text fill="#000000" font-family="sans-serif" font-size="12.6" lengthAdjust="spacing" textLength="96.6656" x="438.75" y="274.2205">messageId: Long</text><text fill="#000000" font-family="sans-serif" font-size="12.6" lengthAdjust="spacing" textLength="173.6991" x="438.75" y="290.9795">conversationId: ConversationId</text><text fill="#000000" font-family="sans-serif" font-size="12.6" lengthAdjust="spacing" textLength="93.1465" x="438.75" y="307.7385">senderId: UserId</text><text fill="#000000" font-family="sans-serif" font-size="12.6" lengthAdjust="spacing" textLength="99.4342" x="438.75" y="324.4975">receiverId: UserId</text><text fill="#000000" font-family="sans-serif" font-size="12.6" lengthAdjust="spacing" textLength="127.4581" x="438.75" y="341.2564">sentAt: LocalDateTime</text><line style="stroke:#181818;stroke-width:0.45;" x1="434.25" x2="616.9491" y1="348.0188" y2="348.0188"/></g><!--class MessageDelivered--><g class="entity" data-entity="MessageDelivered" data-source-line="45" data-uid="ent0009" id="entity_MessageDelivered"><rect fill="#F1F1F1" height="104.8008" rx="2.25" ry="2.25" style="stroke:#181818;stroke-width:0.45;" width="184.4991" x="649.35" y="234"/><ellipse cx="685.9571" cy="254.0619" fill="#ADD1B2" rx="9.9" ry="9.9" style="stroke:#181818;stroke-width:0.9;"/><path d="M688.4462,250.3494 Q688.5868,250.1525 688.7556,250.0541 Q688.9243,249.9557 689.1212,249.9557 Q689.4587,249.9557 689.6696,250.1947 Q689.8806,250.4197 689.8806,250.9682 L689.8806,252.276 Q689.8806,252.8244 689.6696,253.0635 Q689.4587,253.3025 689.1212,253.3025 Q688.8118,253.3025 688.629,253.1197 Q688.4462,252.951 688.3478,252.4869 Q688.3056,252.1635 688.1368,251.9947 Q687.8415,251.6572 687.2931,251.4604 Q686.7446,251.2635 686.1821,251.2635 Q685.4931,251.2635 684.9165,251.5588 Q684.354,251.8541 683.904,252.5291 Q683.4681,253.2041 683.4681,254.1322 L683.4681,255.1166 Q683.4681,256.2275 684.2696,256.9729 Q685.0712,257.7041 686.5056,257.7041 Q687.3493,257.7041 687.94,257.4791 Q688.2915,257.3385 688.6712,256.9447 Q688.9103,256.7057 689.0368,256.6354 Q689.1775,256.565 689.3603,256.565 Q689.6556,256.565 689.8806,256.8041 Q690.1196,257.0291 690.1196,257.3385 Q690.1196,257.6479 689.8103,258.0135 Q689.3603,258.5338 688.6431,258.8291 Q687.6728,259.2369 686.5056,259.2369 Q685.1415,259.2369 684.0587,258.6744 Q683.1728,258.2244 682.554,257.2682 Q681.9353,256.2979 681.9353,255.1447 L681.9353,254.1041 Q681.9353,252.9088 682.4837,251.8822 Q683.0462,250.8416 684.0306,250.2932 Q685.015,249.7307 686.1259,249.7307 Q686.7868,249.7307 687.3634,249.8854 Q687.954,250.026 688.4462,250.3494 Z " fill="#000000"/><text fill="#000000" font-family="sans-serif" font-size="10.8" font-style="italic" lengthAdjust="spacing" textLength="79.8451" x="715.9445" y="250.1543">&#171;Domain Event&#187;</text><text fill="#000000" font-family="sans-serif" font-size="12.6" lengthAdjust="spacing" textLength="104.3499" x="703.6921" y="266.4615">MessageDelivered</text><line style="stroke:#181818;stroke-width:0.45;" x1="650.25" x2="832.9491" y1="274.1238" y2="274.1238"/><text fill="#000000" font-family="sans-serif" font-size="12.6" lengthAdjust="spacing" textLength="96.6656" x="654.75" y="291.3205">messageId: Long</text><text fill="#000000" font-family="sans-serif" font-size="12.6" lengthAdjust="spacing" textLength="173.6991" x="654.75" y="308.0795">conversationId: ConversationId</text><text fill="#000000" font-family="sans-serif" font-size="12.6" lengthAdjust="spacing" textLength="154.7745" x="654.75" y="324.8385">deliveredAt: LocalDateTime</text><line style="stroke:#181818;stroke-width:0.45;" x1="650.25" x2="832.9491" y1="331.6008" y2="331.6008"/></g><!--class MessageRead--><g class="entity" data-entity="MessageRead" data-source-line="51" data-uid="ent0010" id="entity_MessageRead"><rect fill="#F1F1F1" height="121.5598" rx="2.25" ry="2.25" style="stroke:#181818;stroke-width:0.45;" width="184.4991" x="865.35" y="225.45"/><ellipse cx="913.1506" cy="245.5119" fill="#ADD1B2" rx="9.9" ry="9.9" style="stroke:#181818;stroke-width:0.9;"/><path d="M915.6397,241.7994 Q915.7803,241.6025 915.9491,241.5041 Q916.1178,241.4057 916.3147,241.4057 Q916.6522,241.4057 916.8631,241.6447 Q917.0741,241.8697 917.0741,242.4182 L917.0741,243.726 Q917.0741,244.2744 916.8631,244.5135 Q916.6522,244.7525 916.3147,244.7525 Q916.0053,244.7525 915.8225,244.5697 Q915.6397,244.401 915.5413,243.9369 Q915.4991,243.6135 915.3303,243.4447 Q915.035,243.1072 914.4866,242.9104 Q913.9381,242.7135 913.3756,242.7135 Q912.6866,242.7135 912.11,243.0088 Q911.5475,243.3041 911.0975,243.9791 Q910.6616,244.6541 910.6616,245.5822 L910.6616,246.5666 Q910.6616,247.6775 911.4631,248.4229 Q912.2647,249.1541 913.6991,249.1541 Q914.5428,249.1541 915.1334,248.9291 Q915.485,248.7885 915.8647,248.3947 Q916.1038,248.1557 916.2303,248.0854 Q916.3709,248.015 916.5538,248.015 Q916.8491,248.015 917.0741,248.2541 Q917.3131,248.4791 917.3131,248.7885 Q917.3131,249.0979 917.0038,249.4635 Q916.5538,249.9838 915.8366,250.2791 Q914.8663,250.6869 913.6991,250.6869 Q912.335,250.6869 911.2522,250.1244 Q910.3663,249.6744 909.7475,248.7182 Q909.1288,247.7479 909.1288,246.5947 L909.1288,245.5541 Q909.1288,244.3588 909.6772,243.3322 Q910.2397,242.2916 911.2241,241.7432 Q912.2084,241.1807 913.3194,241.1807 Q913.9803,241.1807 914.5569,241.3354 Q915.1475,241.476 915.6397,241.7994 Z " fill="#000000"/><text fill="#000000" font-family="sans-serif" font-size="10.8" font-style="italic" lengthAdjust="spacing" textLength="79.8451" x="932.302" y="241.6043">&#171;Domain Event&#187;</text><text fill="#000000" font-family="sans-serif" font-size="12.6" lengthAdjust="spacing" textLength="81.2479" x="931.6006" y="257.9115">MessageRead</text><line style="stroke:#181818;stroke-width:0.45;" x1="866.25" x2="1048.9491" y1="265.5738" y2="265.5738"/><text fill="#000000" font-family="sans-serif" font-size="12.6" lengthAdjust="spacing" textLength="96.6656" x="870.75" y="282.7705">messageId: Long</text><text fill="#000000" font-family="sans-serif" font-size="12.6" lengthAdjust="spacing" textLength="173.6991" x="870.75" y="299.5295">conversationId: ConversationId</text><text fill="#000000" font-family="sans-serif" font-size="12.6" lengthAdjust="spacing" textLength="84.0349" x="870.75" y="316.2885">readBy: UserId</text><text fill="#000000" font-family="sans-serif" font-size="12.6" lengthAdjust="spacing" textLength="128.8608" x="870.75" y="333.0475">readAt: LocalDateTime</text><line style="stroke:#181818;stroke-width:0.45;" x1="866.25" x2="1048.9491" y1="339.8098" y2="339.8098"/></g><!--class MessageEdited--><g class="entity" data-entity="MessageEdited" data-source-line="58" data-uid="ent0011" id="entity_MessageEdited"><rect fill="#F1F1F1" height="121.5598" rx="2.25" ry="2.25" style="stroke:#181818;stroke-width:0.45;" width="184.4991" x="693.45" y="443.7"/><ellipse cx="738.4482" cy="463.7619" fill="#ADD1B2" rx="9.9" ry="9.9" style="stroke:#181818;stroke-width:0.9;"/><path d="M740.9373,460.0494 Q741.0779,459.8525 741.2467,459.7541 Q741.4154,459.6557 741.6123,459.6557 Q741.9498,459.6557 742.1607,459.8947 Q742.3717,460.1197 742.3717,460.6682 L742.3717,461.976 Q742.3717,462.5244 742.1607,462.7635 Q741.9498,463.0025 741.6123,463.0025 Q741.3029,463.0025 741.1201,462.8197 Q740.9373,462.651 740.8389,462.1869 Q740.7967,461.8635 740.6279,461.6947 Q740.3326,461.3572 739.7842,461.1604 Q739.2357,460.9635 738.6732,460.9635 Q737.9842,460.9635 737.4076,461.2588 Q736.8451,461.5541 736.3951,462.2291 Q735.9592,462.9041 735.9592,463.8322 L735.9592,464.8166 Q735.9592,465.9275 736.7607,466.6729 Q737.5623,467.4041 738.9967,467.4041 Q739.8404,467.4041 740.4311,467.1791 Q740.7826,467.0385 741.1623,466.6447 Q741.4014,466.4057 741.5279,466.3354 Q741.6686,466.265 741.8514,466.265 Q742.1467,466.265 742.3717,466.5041 Q742.6107,466.7291 742.6107,467.0385 Q742.6107,467.3479 742.3014,467.7135 Q741.8514,468.2338 741.1342,468.5291 Q740.1639,468.9369 738.9967,468.9369 Q737.6326,468.9369 736.5498,468.3744 Q735.6639,467.9244 735.0451,466.9682 Q734.4264,465.9979 734.4264,464.8447 L734.4264,463.8041 Q734.4264,462.6088 734.9748,461.5822 Q735.5373,460.5416 736.5217,459.9932 Q737.5061,459.4307 738.617,459.4307 Q739.2779,459.4307 739.8545,459.5854 Q740.4451,459.726 740.9373,460.0494 Z " fill="#000000"/><text fill="#000000" font-family="sans-serif" font-size="10.8" font-style="italic" lengthAdjust="spacing" textLength="79.8451" x="760.402" y="459.8543">&#171;Domain Event&#187;</text><text fill="#000000" font-family="sans-serif" font-size="12.6" lengthAdjust="spacing" textLength="86.8526" x="756.8982" y="476.1615">MessageEdited</text><line style="stroke:#181818;stroke-width:0.45;" x1="694.35" x2="877.0491" y1="483.8238" y2="483.8238"/><text fill="#000000" font-family="sans-serif" font-size="12.6" lengthAdjust="spacing" textLength="96.6656" x="698.85" y="501.0205">messageId: Long</text><text fill="#000000" font-family="sans-serif" font-size="12.6" lengthAdjust="spacing" textLength="173.6991" x="698.85" y="517.7795">conversationId: ConversationId</text><text fill="#000000" font-family="sans-serif" font-size="12.6" lengthAdjust="spacing" textLength="93.1465" x="698.85" y="534.5385">editedBy: UserId</text><text fill="#000000" font-family="sans-serif" font-size="12.6" lengthAdjust="spacing" textLength="137.9725" x="698.85" y="551.2975">editedAt: LocalDateTime</text><line style="stroke:#181818;stroke-width:0.45;" x1="694.35" x2="877.0491" y1="558.0598" y2="558.0598"/></g><!--class MessageRepository--><g class="entity" data-entity="MessageRepository" data-source-line="65" data-uid="ent0012" id="entity_MessageRepository"><rect fill="#F1F1F1" height="54.5238" rx="2.25" ry="2.25" style="stroke:#181818;stroke-width:0.45;" width="140.1513" x="909.9" y="477"/><ellipse cx="923.4" cy="497.0619" fill="#B4A7E5" rx="9.9" ry="9.9" style="stroke:#181818;stroke-width:0.9;"/><path d="M924.2578,494.0385 L924.2578,500.0291 L925.8047,500.0291 Q926.3531,500.0291 926.5922,500.24 Q926.8313,500.451 926.8313,500.8025 Q926.8313,501.14 926.5922,501.351 Q926.3531,501.5619 925.8047,501.5619 L921.1781,501.5619 Q920.6297,501.5619 920.3906,501.351 Q920.1516,501.14 920.1516,500.7885 Q920.1516,500.451 920.3906,500.24 Q920.6297,500.0291 921.1781,500.0291 L922.725,500.0291 L922.725,494.0385 L921.1781,494.0385 Q920.6297,494.0385 920.3906,493.8275 Q920.1516,493.6166 920.1516,493.265 Q920.1516,492.9275 920.3906,492.7166 Q920.6297,492.5057 921.1781,492.5057 L925.8047,492.5057 Q926.3531,492.5057 926.5922,492.7166 Q926.8313,492.9275 926.8313,493.265 Q926.8313,493.6166 926.5922,493.8275 Q926.3531,494.0385 925.8047,494.0385 L924.2578,494.0385 Z " fill="#000000"/><text fill="#000000" font-family="sans-serif" font-size="10.8" font-style="italic" lengthAdjust="spacing" textLength="63.6346" x="959.8583" y="493.1543">&#171;Repository&#187;</text><text fill="#000000" font-family="sans-serif" font-size="12.6" font-style="italic" lengthAdjust="spacing" textLength="111.3513" x="936" y="509.4615">MessageRepository</text><line style="stroke:#181818;stroke-width:0.45;" x1="910.8" x2="1049.1513" y1="517.1238" y2="517.1238"/><line style="stroke:#181818;stroke-width:0.45;" x1="910.8" x2="1049.1513" y1="524.3238" y2="524.3238"/></g><g class="entity" data-entity="GMN20" data-source-line="82" data-uid="ent0021" id="entity_GMN20"><path d="M173.25,5.4 L173.25,107.7715 A0,0 0 0 0 173.25,107.7715 L304.2,107.7715 L307.8,183.573 L311.4,107.7715 L442.0604,107.7715 A0,0 0 0 0 442.0604,107.7715 L442.0604,14.4 L433.0604,5.4 L173.25,5.4 A0,0 0 0 0 173.25,5.4" fill="#FEFFDD" style="stroke:#181818;stroke-width:0.45;"/><path d="M433.0604,5.4 L433.0604,14.4 L442.0604,14.4 L433.0604,5.4" fill="#FEFFDD" style="stroke:#181818;stroke-width:0.45;"/><text fill="#000000" font-family="sans-serif" font-size="11.7" font-weight="bold" lengthAdjust="spacing" textLength="91.0292" x="178.65" y="22.5255">Business Rules:</text><text fill="#000000" font-family="sans-serif" font-size="11.7" lengthAdjust="spacing" textLength="207.6407" x="178.65" y="38.0874">&#8226; Sender must be different from receiver</text><text fill="#000000" font-family="sans-serif" font-size="11.7" lengthAdjust="spacing" textLength="186.8629" x="178.65" y="53.6493">&#8226; Message content cannot be empty</text><text fill="#000000" font-family="sans-serif" font-size="11.7" lengthAdjust="spacing" textLength="172.5521" x="178.65" y="69.2112">&#8226; SentAt must not be in the future</text><text fill="#000000" font-family="sans-serif" font-size="11.7" lengthAdjust="spacing" textLength="192.0502" x="178.65" y="84.7731">&#8226; Only sender can edit their message</text><text fill="#000000" font-family="sans-serif" font-size="11.7" lengthAdjust="spacing" textLength="249.9104" x="178.65" y="100.3351">&#8226; Status follows: SENT &#8594; DELIVERED &#8594; READ</text></g><g class="entity" data-entity="GMN23" data-source-line="91" data-uid="ent0024" id="entity_GMN23"><path d="M1079.1,643.95 L1079.1,668.25 L409.563,671.85 L1079.1,675.45 L1079.1,699.6357 A0,0 0 0 0 1079.1,699.6357 L1190.5431,699.6357 A0,0 0 0 0 1190.5431,699.6357 L1190.5431,652.95 L1181.5431,643.95 L1079.1,643.95 A0,0 0 0 0 1079.1,643.95" fill="#FEFFDD" style="stroke:#181818;stroke-width:0.45;"/><path d="M1181.5431,643.95 L1181.5431,652.95 L1190.5431,652.95 L1181.5431,643.95" fill="#FEFFDD" style="stroke:#181818;stroke-width:0.45;"/><text fill="#000000" font-family="sans-serif" font-size="11.7" font-weight="bold" lengthAdjust="spacing" textLength="59.1684" x="1084.5" y="661.0755">Invariants:</text><text fill="#000000" font-family="sans-serif" font-size="11.7" lengthAdjust="spacing" textLength="92.5431" x="1084.5" y="676.6374">&#8226; Must be positive</text><text fill="#000000" font-family="sans-serif" font-size="11.7" lengthAdjust="spacing" textLength="83.4596" x="1084.5" y="692.1993">&#8226; Cannot be null</text></g><g class="entity" data-entity="GMN26" data-source-line="97" data-uid="ent0027" id="entity_GMN26"><path d="M1082.25,476.55 L1082.25,532.2357 L1273.6964,532.2357 L1273.6964,485.55 L1264.6964,476.55 L1082.25,476.55" fill="#FEFFDD" style="stroke:#181818;stroke-width:0.45;"/><path d="M1264.6964,476.55 L1264.6964,485.55 L1273.6964,485.55 L1264.6964,476.55" fill="#FEFFDD" style="stroke:#181818;stroke-width:0.9;"/><text fill="#000000" font-family="sans-serif" font-size="11.7" font-weight="bold" lengthAdjust="spacing" textLength="59.1684" x="1087.65" y="493.6755">Invariants:</text><text fill="#000000" font-family="sans-serif" font-size="11.7" lengthAdjust="spacing" textLength="172.5464" x="1087.65" y="509.2374">&#8226; Cannot be empty or whitespace</text><text fill="#000000" font-family="sans-serif" font-size="11.7" lengthAdjust="spacing" textLength="145.8558" x="1087.65" y="524.7993">&#8226; Maximum 5000 characters</text></g><g class="entity" data-entity="GMN29" data-source-line="103" data-uid="ent0030" id="entity_GMN29"><path d="M1305.9,468.9 L1305.9,540.1477 L1502.5223,540.1477 L1502.5223,477.9 L1493.5223,468.9 L1305.9,468.9" fill="#FEFFDD" style="stroke:#181818;stroke-width:0.45;"/><path d="M1493.5223,468.9 L1493.5223,477.9 L1502.5223,477.9 L1493.5223,468.9" fill="#FEFFDD" style="stroke:#181818;stroke-width:0.9;"/><text fill="#000000" font-family="sans-serif" font-size="11.7" font-weight="bold" lengthAdjust="spacing" textLength="35.757" x="1311.3" y="486.0255">Rules:</text><text fill="#000000" font-family="sans-serif" font-size="11.7" lengthAdjust="spacing" textLength="177.7223" x="1311.3" y="501.5874">&#8226; Composite of two sorted UserIds</text><text fill="#000000" font-family="sans-serif" font-size="11.7" lengthAdjust="spacing" textLength="150.8946" x="1311.3" y="517.1493">&#8226; Format: "smallerId-largerId"</text><text fill="#000000" font-family="sans-serif" font-size="11.7" lengthAdjust="spacing" textLength="175.1458" x="1311.3" y="532.7112">&#8226; Ensures consistent identification</text></g><g class="entity" data-entity="GMN32" data-source-line="110" data-uid="ent0033" id="entity_GMN32"><path d="M1533.6,476.55 L1533.6,532.2357 L1715.723,532.2357 L1715.723,485.55 L1706.723,476.55 L1533.6,476.55" fill="#FEFFDD" style="stroke:#181818;stroke-width:0.45;"/><path d="M1706.723,476.55 L1706.723,485.55 L1715.723,485.55 L1706.723,476.55" fill="#FEFFDD" style="stroke:#181818;stroke-width:0.9;"/><text fill="#000000" font-family="sans-serif" font-size="11.7" font-weight="bold" lengthAdjust="spacing" textLength="72.1652" x="1539" y="493.6755">Progression:</text><text fill="#000000" font-family="sans-serif" font-size="11.7" lengthAdjust="spacing" textLength="163.223" x="1539" y="509.2374">SENT &#8594; DELIVERED &#8594; READ</text><text fill="#000000" font-family="sans-serif" font-size="11.7" lengthAdjust="spacing" textLength="157.3673" x="1539" y="524.7993">(Transitions are unidirectional)</text></g><!--reverse link Message to UserId--><g class="link" data-entity-1="Message" data-entity-2="UserId" data-source-line="71" data-uid="lnk13" id="link_Message_UserId"><path codeLine="71" d="M204.84,328.5566 C153.882,353.9546 104.994,388.422 75.6,443.7 C50.247,491.382 48.465,518.508 75.6,565.2 C122.778,646.38 242.145,665.784 310.293,670.077" fill="none" id="Message-backto-UserId" style="stroke:#181818;stroke-width:0.9;"/><polygon fill="#181818" points="214.506,323.739,208.0672,322.9258,204.84,328.5566,211.2789,329.3698,214.506,323.739" style="stroke:#181818;stroke-width:0.9;"/><text fill="#000000" font-family="sans-serif" font-size="11.7" lengthAdjust="spacing" textLength="45.5317" x="76.5" y="509.4255">senderId</text></g><!--reverse link Message to UserId--><g class="link" data-entity-1="Message" data-entity-2="UserId" data-source-line="72" data-uid="lnk14" id="link_Message_UserId"><path codeLine="72" d="M208.0496,386.6798 C192.7676,406.7318 185.733,420.408 177.3,443.7 C158.913,494.478 150.327,518.418 177.3,565.2 C205.677,614.412 266.67,642.798 310.374,657.54" fill="none" id="Message-backto-UserId-1" style="stroke:#181818;stroke-width:0.9;"/><polygon fill="#181818" points="214.596,378.09,208.4595,380.2027,208.0496,386.6798,214.186,384.567,214.596,378.09" style="stroke:#181818;stroke-width:0.9;"/><text fill="#000000" font-family="sans-serif" font-size="11.7" lengthAdjust="spacing" textLength="51.3703" x="178.2" y="509.4255">receiverId</text></g><!--reverse link Message to MessageContent--><g class="link" data-entity-1="Message" data-entity-2="MessageContent" data-source-line="73" data-uid="lnk15" id="link_Message_MessageContent"><path codeLine="73" d="M307.8,399.789 C307.8,428.517 307.8,447.039 307.8,468.828" fill="none" id="Message-backto-MessageContent" style="stroke:#181818;stroke-width:0.9;"/><polygon fill="#181818" points="307.8,388.989,304.2,394.389,307.8,399.789,311.4,394.389,307.8,388.989" style="stroke:#181818;stroke-width:0.9;"/></g><!--reverse link Message to ConversationId--><g class="link" data-entity-1="Message" data-entity-2="ConversationId" data-source-line="74" data-uid="lnk16" id="link_Message_ConversationId"><path codeLine="74" d="M384.708,397.8607 C404.652,426.5887 418.86,447.039 433.989,468.828" fill="none" id="Message-backto-ConversationId" style="stroke:#181818;stroke-width:0.9;"/><polygon fill="#181818" points="378.549,388.989,378.6713,395.4778,384.708,397.8607,384.5857,391.3718,378.549,388.989" style="stroke:#181818;stroke-width:0.9;"/></g><!--reverse link Message to MessageStatus--><g class="link" data-entity-1="Message" data-entity-2="MessageStatus" data-source-line="75" data-uid="lnk17" id="link_Message_MessageStatus"><path codeLine="75" d="M409.792,383.4771 C415.21,387.6531 412.128,385.065 417.6,388.8 C463.851,420.372 483.831,413.523 531,443.7 C535.968,446.877 540.981,450.342 545.922,453.96" fill="none" id="Message-backto-MessageStatus" style="stroke:#181818;stroke-width:0.9;"/><polygon fill="#181818" points="401.238,376.884,403.3173,383.0319,409.792,383.4771,407.7127,377.3292,401.238,376.884" style="stroke:#181818;stroke-width:0.9;"/></g><!--reverse link ConversationId to UserId--><g class="link" data-entity-1="ConversationId" data-entity-2="UserId" data-source-line="77" data-uid="lnk18" id="link_ConversationId_UserId"><path codeLine="77" d="M407.8092,547.1155 C380.9082,569.6515 358.992,588.51 357.3,592.2 C351.09,605.754 350.658,622.044 352.206,636.282" fill="none" id="ConversationId-backto-UserId" style="stroke:#181818;stroke-width:0.9;"/><polygon fill="#181818" points="416.088,540.18,409.6368,540.8881,407.8092,547.1155,414.2604,546.4074,416.088,540.18" style="stroke:#181818;stroke-width:0.9;"/><text fill="#000000" font-family="sans-serif" font-size="11.7" lengthAdjust="spacing" textLength="60.4881" x="358.2" y="605.7255">participant1</text></g><!--reverse link ConversationId to UserId--><g class="link" data-entity-1="ConversationId" data-entity-2="UserId" data-source-line="78" data-uid="lnk19" id="link_ConversationId_UserId"><path codeLine="78" d="M447.9958,550.5948 C442.4968,571.6908 436.329,588.087 423,609.3 C417.06,618.759 409.383,627.84 401.445,635.985" fill="none" id="ConversationId-backto-UserId-1" style="stroke:#181818;stroke-width:0.9;"/><polygon fill="#181818" points="450.72,540.144,445.8743,544.4613,447.9958,550.5948,452.8415,546.2774,450.72,540.144" style="stroke:#181818;stroke-width:0.9;"/><text fill="#000000" font-family="sans-serif" font-size="11.7" lengthAdjust="spacing" textLength="60.4881" x="432" y="605.7255">participant2</text></g><!--link MessageContent to GMN26--><g class="link" data-entity-1="MessageContent" data-entity-2="GMN26" data-source-line="97" data-uid="lnk28" id="link_MessageContent_GMN26"><path d="M334.449,468.711 C351.324,449.181 374.994,426.87 401.85,416.25 C468.711,389.808 980.253,395.028 1048.95,416.25 C1087.083,428.031 1124.01,455.364 1148.535,476.505" fill="none" id="MessageContent-GMN26" style="stroke:#181818;stroke-width:0.9;stroke-dasharray:6.3,6.3;"/></g><!--link ConversationId to GMN29--><g class="link" data-entity-1="ConversationId" data-entity-2="GMN29" data-source-line="103" data-uid="lnk31" id="link_ConversationId_GMN29"><path d="M482.796,468.756 C498.555,449.244 520.866,426.933 546.75,416.25 C621.441,385.425 1196.712,392.526 1273.95,416.25 C1307.718,426.618 1340.604,449.073 1364.859,468.72" fill="none" id="ConversationId-GMN29" style="stroke:#181818;stroke-width:0.9;stroke-dasharray:6.3,6.3;"/></g><!--link MessageStatus to GMN32--><g class="link" data-entity-1="MessageStatus" data-entity-2="GMN32" data-source-line="110" data-uid="lnk34" id="link_MessageStatus_GMN32"><path d="M643.743,452.07 C657.72,437.688 674.667,423.945 693.45,416.25 C776.637,382.158 1417.023,388.566 1502.55,416.25 C1539.09,428.076 1573.875,455.409 1596.879,476.532" fill="none" id="MessageStatus-GMN32" style="stroke:#181818;stroke-width:0.9;stroke-dasharray:6.3,6.3;"/></g><!--SRC=[nLRHQjim57ttLwXvsMOeT8EzX59e4my2JJkIjB17rRvsjCgIaUHqOGpsj0_O9-pJ-YMxacmvpjoiUoWp8Obqhywzz-ZeoaSPv4m0IQvMizKdadAgTNJKJDvUxqqaLpTp0g8kewYYwJqjW8oMaDOALfJVawaiAHCZyZMA23uDvXoqjfwdf-T5eQ2W1iX2IdDsXewaUKhlDCl6v5AA8iodKcn0QMgO5DOuwOs3cmQHWR8EDzh-1eE25DXcq8JG1eGPjmbE_7WNqvmRcqzA-HIpNh4IEgkXfjPXyT8DWvNf96C6CEY5b1oe21RaqtYRXHj2_-RPG_9zmaZSBUKraEkxpv3sQTjOmmvbtTf-KOSm0WzBezWVE7t23-6mR0Z2IQP74c8aA25G3hC7iKJ9XC4qkPpT9eja6cOMoVbq5zk9Cu3xChq6IRB1uVzMsDCA6YfW2jpYGFQ2LMHjZEUdjG3waXafXB_O3h1A_o57Vw1UC4jm0GRoz8Q3cJ8yNYgdANICLb8p8zKMC-u68LzSXvzNP07SvQ7NhD9HsqRZu-EsCOo3AeUjdJHxzhr-jslQAtzWLTFeehs-q8jRKMLOoYegpDldEhwp5L_K6gyPtDT5pK57Gk9LOMH5PDw6Z-AuxpIEu-Zn-o-oT4oGijQ6t079M9wZph4bv4gMWGddsbRLD3wIKe6Hx2eeAxDjuV3eUhZ6YBeoQo1vRV2-SqxNWc-RBR0WJWpMXwbMRnxBjxrSSYuVyCgmNOuy_lZPTJWtSjqDmMmyY7pnYXLhOyjlP1V7Cx6XYY5XeV9vKxBJ4HRf9YUX9b5p_YJidXI6u2TzTeXKv66DejVu1k1ZpUaNLjObUNzoSaBIDLKqHSNh9uFkYIoEUnivaQMh1AohUP14IsKFjsT0EvyFKfKKpzn8bvHpEt_CgIhidv5pI8J6JT9sYpNJRfTPXjyiPwcB-pT66fd7yKSbyQL5QrnZCpoqTwzNYWgx1nYKK0Ma5YnZA3qxG_cRBkPl]--></g></svg>