<svg xmlns="http://www.w3.org/2000/svg" xmlns:xlink="http://www.w3.org/1999/xlink" contentStyleType="text/css" data-diagram-type="CLASS" height="661.6px" preserveAspectRatio="none" style="width:1701px;height:661px;background:#FFFFFF;" version="1.1" viewBox="0 0 1701 661" width="1701.6px" zoomAndPan="magnify"><defs/><g><!--cluster SecureTalk Domain--><g class="cluster" data-entity="SecureTalk Domain" data-source-line="5" data-uid="ent0002" id="cluster_SecureTalk Domain"><path d="M6.8,133.6 L111.55,133.6 A3,3 0 0 1 113.55,135.6 L119.15,153.2969 L1115.6,153.2969 A2,2 0 0 1 1117.6,155.2969 L1117.6,654 A2,2 0 0 1 1115.6,656 L6.8,656 A2,2 0 0 1 4.8,654 L4.8,135.6 A2,2 0 0 1 6.8,133.6" fill="none" style="stroke:#000000;stroke-width:1.2;"/><line style="stroke:#000000;stroke-width:1.2;" x1="4.8" x2="119.15" y1="153.2969" y2="153.2969"/><text fill="#000000" font-family="sans-serif" font-size="11.2" font-weight="bold" lengthAdjust="spacing" textLength="103.95" x="8" y="147.2859">SecureTalk Domain</text></g><!--class Message--><g class="entity" data-entity="Message" data-source-line="7" data-uid="ent0003" id="entity_Message"><rect fill="#F1F1F1" height="182.5375" rx="2" ry="2" style="stroke:#181818;stroke-width:0.4;" width="167.7125" x="240" y="163.2"/><ellipse cx="283.0938" cy="181.0328" fill="#ADD1B2" rx="8.8" ry="8.8" style="stroke:#181818;stroke-width:0.8;"/><path d="M285.3063,177.7328 Q285.4313,177.5578 285.5813,177.4703 Q285.7313,177.3828 285.9063,177.3828 Q286.2063,177.3828 286.3938,177.5953 Q286.5813,177.7953 286.5813,178.2828 L286.5813,179.4453 Q286.5813,179.9328 286.3938,180.1453 Q286.2063,180.3578 285.9063,180.3578 Q285.6313,180.3578 285.4688,180.1953 Q285.3063,180.0453 285.2188,179.6328 Q285.1813,179.3453 285.0313,179.1953 Q284.7688,178.8953 284.2813,178.7203 Q283.7938,178.5453 283.2938,178.5453 Q282.6813,178.5453 282.1688,178.8078 Q281.6688,179.0703 281.2688,179.6703 Q280.8813,180.2703 280.8813,181.0953 L280.8813,181.9703 Q280.8813,182.9578 281.5938,183.6203 Q282.3063,184.2703 283.5813,184.2703 Q284.3313,184.2703 284.8563,184.0703 Q285.1688,183.9453 285.5063,183.5953 Q285.7188,183.3828 285.8313,183.3203 Q285.9563,183.2578 286.1188,183.2578 Q286.3813,183.2578 286.5813,183.4703 Q286.7938,183.6703 286.7938,183.9453 Q286.7938,184.2203 286.5188,184.5453 Q286.1188,185.0078 285.4813,185.2703 Q284.6188,185.6328 283.5813,185.6328 Q282.3688,185.6328 281.4063,185.1328 Q280.6188,184.7328 280.0688,183.8828 Q279.5188,183.0203 279.5188,181.9953 L279.5188,181.0703 Q279.5188,180.0078 280.0063,179.0953 Q280.5063,178.1703 281.3813,177.6828 Q282.2563,177.1828 283.2438,177.1828 Q283.8313,177.1828 284.3438,177.3203 Q284.8688,177.4453 285.3063,177.7328 Z " fill="#000000"/><text fill="#000000" font-family="sans-serif" font-size="9.6" font-style="italic" lengthAdjust="spacing" textLength="77.925" x="297.8938" y="177.5594">&#171;Aggregate Root&#187;</text><text fill="#000000" font-family="sans-serif" font-size="11.2" lengthAdjust="spacing" textLength="45.4453" x="314.1336" y="192.0547">Message</text><line style="stroke:#181818;stroke-width:0.4;" x1="240.8" x2="406.9125" y1="198.8656" y2="198.8656"/><text fill="#000000" font-family="sans-serif" font-size="11.2" lengthAdjust="spacing" textLength="85.925" x="244.8" y="214.1516">messageId: Long</text><text fill="#000000" font-family="sans-serif" font-size="11.2" lengthAdjust="spacing" textLength="154.3992" x="244.8" y="229.0484">conversationId: ConversationId</text><text fill="#000000" font-family="sans-serif" font-size="11.2" lengthAdjust="spacing" textLength="82.7969" x="244.8" y="243.9453">senderId: UserId</text><text fill="#000000" font-family="sans-serif" font-size="11.2" lengthAdjust="spacing" textLength="88.3859" x="244.8" y="258.8422">receiverId: UserId</text><text fill="#000000" font-family="sans-serif" font-size="11.2" lengthAdjust="spacing" textLength="127.6352" x="244.8" y="273.7391">content: MessageContent</text><text fill="#000000" font-family="sans-serif" font-size="11.2" lengthAdjust="spacing" textLength="113.2961" x="244.8" y="288.6359">sentAt: LocalDateTime</text><text fill="#000000" font-family="sans-serif" font-size="11.2" lengthAdjust="spacing" textLength="113.3016" x="244.8" y="303.5328">status: MessageStatus</text><text fill="#000000" font-family="sans-serif" font-size="11.2" lengthAdjust="spacing" textLength="87.1719" x="244.8" y="318.4297">isEdited: Boolean</text><text fill="#000000" font-family="sans-serif" font-size="11.2" lengthAdjust="spacing" textLength="158.1125" x="244.8" y="333.3266">lastEditedTime: LastEditedTime</text><line style="stroke:#181818;stroke-width:0.4;" x1="240.8" x2="406.9125" y1="339.3375" y2="339.3375"/></g><!--class UserId--><g class="entity" data-entity="UserId" data-source-line="19" data-uid="ent0004" id="entity_UserId"><rect fill="#F1F1F1" height="63.3625" rx="2" ry="2" style="stroke:#181818;stroke-width:0.4;" width="88.0438" x="276" y="580"/><ellipse cx="288" cy="597.8328" fill="#ADD1B2" rx="8.8" ry="8.8" style="stroke:#181818;stroke-width:0.8;"/><path d="M290.2125,594.5328 Q290.3375,594.3578 290.4875,594.2703 Q290.6375,594.1828 290.8125,594.1828 Q291.1125,594.1828 291.3,594.3953 Q291.4875,594.5953 291.4875,595.0828 L291.4875,596.2453 Q291.4875,596.7328 291.3,596.9453 Q291.1125,597.1578 290.8125,597.1578 Q290.5375,597.1578 290.375,596.9953 Q290.2125,596.8453 290.125,596.4328 Q290.0875,596.1453 289.9375,595.9953 Q289.675,595.6953 289.1875,595.5203 Q288.7,595.3453 288.2,595.3453 Q287.5875,595.3453 287.075,595.6078 Q286.575,595.8703 286.175,596.4703 Q285.7875,597.0703 285.7875,597.8953 L285.7875,598.7703 Q285.7875,599.7578 286.5,600.4203 Q287.2125,601.0703 288.4875,601.0703 Q289.2375,601.0703 289.7625,600.8703 Q290.075,600.7453 290.4125,600.3953 Q290.625,600.1828 290.7375,600.1203 Q290.8625,600.0578 291.025,600.0578 Q291.2875,600.0578 291.4875,600.2703 Q291.7,600.4703 291.7,600.7453 Q291.7,601.0203 291.425,601.3453 Q291.025,601.8078 290.3875,602.0703 Q289.525,602.4328 288.4875,602.4328 Q287.275,602.4328 286.3125,601.9328 Q285.525,601.5328 284.975,600.6828 Q284.425,599.8203 284.425,598.7953 L284.425,597.8703 Q284.425,596.8078 284.9125,595.8953 Q285.4125,594.9703 286.2875,594.4828 Q287.1625,593.9828 288.15,593.9828 Q288.7375,593.9828 289.25,594.1203 Q289.775,594.2453 290.2125,594.5328 Z " fill="#000000"/><text fill="#000000" font-family="sans-serif" font-size="9.6" font-style="italic" lengthAdjust="spacing" textLength="65.6438" x="297.6" y="594.3594">&#171;Value Object&#187;</text><text fill="#000000" font-family="sans-serif" font-size="11.2" lengthAdjust="spacing" textLength="32.9875" x="313.9281" y="608.8547">UserId</text><line style="stroke:#181818;stroke-width:0.4;" x1="276.8" x2="363.2438" y1="615.6656" y2="615.6656"/><text fill="#000000" font-family="sans-serif" font-size="11.2" lengthAdjust="spacing" textLength="57.9141" x="280.8" y="630.9516">value: Long</text><line style="stroke:#181818;stroke-width:0.4;" x1="276.8" x2="363.2438" y1="636.9625" y2="636.9625"/></g><!--class MessageContent--><g class="entity" data-entity="MessageContent" data-source-line="23" data-uid="ent0005" id="entity_MessageContent"><rect fill="#F1F1F1" height="63.3625" rx="2" ry="2" style="stroke:#181818;stroke-width:0.4;" width="110.2727" x="218.4" y="431.2"/><ellipse cx="230.4" cy="449.0328" fill="#ADD1B2" rx="8.8" ry="8.8" style="stroke:#181818;stroke-width:0.8;"/><path d="M232.6125,445.7328 Q232.7375,445.5578 232.8875,445.4703 Q233.0375,445.3828 233.2125,445.3828 Q233.5125,445.3828 233.7,445.5953 Q233.8875,445.7953 233.8875,446.2828 L233.8875,447.4453 Q233.8875,447.9328 233.7,448.1453 Q233.5125,448.3578 233.2125,448.3578 Q232.9375,448.3578 232.775,448.1953 Q232.6125,448.0453 232.525,447.6328 Q232.4875,447.3453 232.3375,447.1953 Q232.075,446.8953 231.5875,446.7203 Q231.1,446.5453 230.6,446.5453 Q229.9875,446.5453 229.475,446.8078 Q228.975,447.0703 228.575,447.6703 Q228.1875,448.2703 228.1875,449.0953 L228.1875,449.9703 Q228.1875,450.9578 228.9,451.6203 Q229.6125,452.2703 230.8875,452.2703 Q231.6375,452.2703 232.1625,452.0703 Q232.475,451.9453 232.8125,451.5953 Q233.025,451.3828 233.1375,451.3203 Q233.2625,451.2578 233.425,451.2578 Q233.6875,451.2578 233.8875,451.4703 Q234.1,451.6703 234.1,451.9453 Q234.1,452.2203 233.825,452.5453 Q233.425,453.0078 232.7875,453.2703 Q231.925,453.6328 230.8875,453.6328 Q229.675,453.6328 228.7125,453.1328 Q227.925,452.7328 227.375,451.8828 Q226.825,451.0203 226.825,449.9953 L226.825,449.0703 Q226.825,448.0078 227.3125,447.0953 Q227.8125,446.1703 228.6875,445.6828 Q229.5625,445.1828 230.55,445.1828 Q231.1375,445.1828 231.65,445.3203 Q232.175,445.4453 232.6125,445.7328 Z " fill="#000000"/><text fill="#000000" font-family="sans-serif" font-size="9.6" font-style="italic" lengthAdjust="spacing" textLength="65.6438" x="251.1145" y="445.5594">&#171;Value Object&#187;</text><text fill="#000000" font-family="sans-serif" font-size="11.2" lengthAdjust="spacing" textLength="84.6727" x="241.6" y="460.0547">MessageContent</text><line style="stroke:#181818;stroke-width:0.4;" x1="219.2" x2="327.8727" y1="466.8656" y2="466.8656"/><text fill="#000000" font-family="sans-serif" font-size="11.2" lengthAdjust="spacing" textLength="72.2203" x="223.2" y="482.1516">content: String</text><line style="stroke:#181818;stroke-width:0.4;" x1="219.2" x2="327.8727" y1="488.1625" y2="488.1625"/></g><!--class ConversationId--><g class="entity" data-entity="ConversationId" data-source-line="27" data-uid="ent0006" id="entity_ConversationId"><rect fill="#F1F1F1" height="63.3625" rx="2" ry="2" style="stroke:#181818;stroke-width:0.4;" width="100.932" x="356.8" y="431.2"/><ellipse cx="368.8" cy="449.0328" fill="#ADD1B2" rx="8.8" ry="8.8" style="stroke:#181818;stroke-width:0.8;"/><path d="M371.0125,445.7328 Q371.1375,445.5578 371.2875,445.4703 Q371.4375,445.3828 371.6125,445.3828 Q371.9125,445.3828 372.1,445.5953 Q372.2875,445.7953 372.2875,446.2828 L372.2875,447.4453 Q372.2875,447.9328 372.1,448.1453 Q371.9125,448.3578 371.6125,448.3578 Q371.3375,448.3578 371.175,448.1953 Q371.0125,448.0453 370.925,447.6328 Q370.8875,447.3453 370.7375,447.1953 Q370.475,446.8953 369.9875,446.7203 Q369.5,446.5453 369,446.5453 Q368.3875,446.5453 367.875,446.8078 Q367.375,447.0703 366.975,447.6703 Q366.5875,448.2703 366.5875,449.0953 L366.5875,449.9703 Q366.5875,450.9578 367.3,451.6203 Q368.0125,452.2703 369.2875,452.2703 Q370.0375,452.2703 370.5625,452.0703 Q370.875,451.9453 371.2125,451.5953 Q371.425,451.3828 371.5375,451.3203 Q371.6625,451.2578 371.825,451.2578 Q372.0875,451.2578 372.2875,451.4703 Q372.5,451.6703 372.5,451.9453 Q372.5,452.2203 372.225,452.5453 Q371.825,453.0078 371.1875,453.2703 Q370.325,453.6328 369.2875,453.6328 Q368.075,453.6328 367.1125,453.1328 Q366.325,452.7328 365.775,451.8828 Q365.225,451.0203 365.225,449.9953 L365.225,449.0703 Q365.225,448.0078 365.7125,447.0953 Q366.2125,446.1703 367.0875,445.6828 Q367.9625,445.1828 368.95,445.1828 Q369.5375,445.1828 370.05,445.3203 Q370.575,445.4453 371.0125,445.7328 Z " fill="#000000"/><text fill="#000000" font-family="sans-serif" font-size="9.6" font-style="italic" lengthAdjust="spacing" textLength="65.6438" x="384.8441" y="445.5594">&#171;Value Object&#187;</text><text fill="#000000" font-family="sans-serif" font-size="11.2" lengthAdjust="spacing" textLength="75.332" x="380" y="460.0547">ConversationId</text><line style="stroke:#181818;stroke-width:0.4;" x1="357.6" x2="456.932" y1="466.8656" y2="466.8656"/><text fill="#000000" font-family="sans-serif" font-size="11.2" lengthAdjust="spacing" textLength="44.1984" x="361.6" y="482.1516">id: String</text><line style="stroke:#181818;stroke-width:0.4;" x1="357.6" x2="456.932" y1="488.1625" y2="488.1625"/></g><!--class LastEditedTime--><g class="entity" data-entity="LastEditedTime" data-source-line="31" data-uid="ent0007" id="entity_LastEditedTime"><rect fill="#F1F1F1" height="63.3625" rx="2" ry="2" style="stroke:#181818;stroke-width:0.4;" width="142.8023" x="616.4" y="431.2"/><ellipse cx="646.1244" cy="449.0328" fill="#ADD1B2" rx="8.8" ry="8.8" style="stroke:#181818;stroke-width:0.8;"/><path d="M648.3369,445.7328 Q648.4619,445.5578 648.6119,445.4703 Q648.7619,445.3828 648.9369,445.3828 Q649.2369,445.3828 649.4244,445.5953 Q649.6119,445.7953 649.6119,446.2828 L649.6119,447.4453 Q649.6119,447.9328 649.4244,448.1453 Q649.2369,448.3578 648.9369,448.3578 Q648.6619,448.3578 648.4994,448.1953 Q648.3369,448.0453 648.2494,447.6328 Q648.2119,447.3453 648.0619,447.1953 Q647.7994,446.8953 647.3119,446.7203 Q646.8244,446.5453 646.3244,446.5453 Q645.7119,446.5453 645.1994,446.8078 Q644.6994,447.0703 644.2994,447.6703 Q643.9119,448.2703 643.9119,449.0953 L643.9119,449.9703 Q643.9119,450.9578 644.6244,451.6203 Q645.3369,452.2703 646.6119,452.2703 Q647.3619,452.2703 647.8869,452.0703 Q648.1994,451.9453 648.5369,451.5953 Q648.7494,451.3828 648.8619,451.3203 Q648.9869,451.2578 649.1494,451.2578 Q649.4119,451.2578 649.6119,451.4703 Q649.8244,451.6703 649.8244,451.9453 Q649.8244,452.2203 649.5494,452.5453 Q649.1494,453.0078 648.5119,453.2703 Q647.6494,453.6328 646.6119,453.6328 Q645.3994,453.6328 644.4369,453.1328 Q643.6494,452.7328 643.0994,451.8828 Q642.5494,451.0203 642.5494,449.9953 L642.5494,449.0703 Q642.5494,448.0078 643.0369,447.0953 Q643.5369,446.1703 644.4119,445.6828 Q645.2869,445.1828 646.2744,445.1828 Q646.8619,445.1828 647.3744,445.3203 Q647.8994,445.4453 648.3369,445.7328 Z " fill="#000000"/><text fill="#000000" font-family="sans-serif" font-size="9.6" font-style="italic" lengthAdjust="spacing" textLength="65.6438" x="667.3487" y="445.5594">&#171;Value Object&#187;</text><text fill="#000000" font-family="sans-serif" font-size="11.2" lengthAdjust="spacing" textLength="77.8148" x="661.2631" y="460.0547">LastEditedTime</text><line style="stroke:#181818;stroke-width:0.4;" x1="617.2" x2="758.4023" y1="466.8656" y2="466.8656"/><text fill="#000000" font-family="sans-serif" font-size="11.2" lengthAdjust="spacing" textLength="133.2023" x="621.2" y="482.1516">timestamp: LocalDateTime</text><line style="stroke:#181818;stroke-width:0.4;" x1="617.2" x2="758.4023" y1="488.1625" y2="488.1625"/></g><!--class MessageStatus--><g class="entity" data-entity="MessageStatus" data-source-line="35" data-uid="ent0008" id="entity_MessageStatus"><rect fill="#F1F1F1" height="93.1563" rx="2" ry="2" style="stroke:#181818;stroke-width:0.4;" width="102.7969" x="485.6" y="416.4"/><ellipse cx="497.6" cy="434.2328" fill="#EB937F" rx="8.8" ry="8.8" style="stroke:#181818;stroke-width:0.8;"/><path d="M496.6875,434.8703 L496.6875,436.8703 L500.15,436.8703 L500.15,436.1328 Q500.15,435.6453 500.3375,435.4328 Q500.5375,435.2203 500.8375,435.2203 Q501.1375,435.2203 501.325,435.4328 Q501.5125,435.6453 501.5125,436.1328 L501.5125,438.2328 L495.1125,438.2328 Q494.6125,438.2328 494.4,438.0453 Q494.2,437.8578 494.2,437.5453 Q494.2,437.2453 494.4125,437.0578 Q494.625,436.8703 495.1125,436.8703 L495.325,436.8703 L495.325,431.5453 L495.1125,431.5453 Q494.6125,431.5453 494.4,431.3578 Q494.2,431.1703 494.2,430.8578 Q494.2,430.5578 494.4,430.3703 Q494.6125,430.1828 495.1125,430.1828 L501.2125,430.1828 L501.2125,432.2578 Q501.2125,432.7453 501.025,432.9578 Q500.85,433.1578 500.5375,433.1578 Q500.2375,433.1578 500.05,432.9578 Q499.8625,432.7453 499.8625,432.2578 L499.8625,431.5453 L496.6875,431.5453 L496.6875,433.5078 L497.875,433.5078 Q497.875,432.9828 497.975,432.8328 Q498.1875,432.5078 498.5625,432.5078 Q498.8625,432.5078 499.05,432.7203 Q499.2375,432.9203 499.2375,433.4078 L499.2375,434.9828 Q499.2375,435.4203 499.1375,435.5703 Q498.925,435.8828 498.5625,435.8828 Q498.1875,435.8828 497.975,435.5578 Q497.875,435.4078 497.875,434.8703 L496.6875,434.8703 Z " fill="#000000"/><text fill="#000000" font-family="sans-serif" font-size="9.6" font-style="italic" lengthAdjust="spacing" textLength="65.1094" x="514.8438" y="430.7594">&#171;Enumeration&#187;</text><text fill="#000000" font-family="sans-serif" font-size="11.2" lengthAdjust="spacing" textLength="77.1969" x="508.8" y="445.2547">MessageStatus</text><line style="stroke:#181818;stroke-width:0.4;" x1="486.4" x2="587.5969" y1="452.0656" y2="452.0656"/><text fill="#000000" font-family="sans-serif" font-size="11.2" lengthAdjust="spacing" textLength="29.8703" x="490.4" y="467.3516">SENT</text><text fill="#000000" font-family="sans-serif" font-size="11.2" lengthAdjust="spacing" textLength="63.4867" x="490.4" y="482.2484">DELIVERED</text><text fill="#000000" font-family="sans-serif" font-size="11.2" lengthAdjust="spacing" textLength="31.1172" x="490.4" y="497.1453">READ</text><line style="stroke:#181818;stroke-width:0.4;" x1="486.4" x2="587.5969" y1="503.1563" y2="503.1563"/></g><!--class MessageSent--><g class="entity" data-entity="MessageSent" data-source-line="41" data-uid="ent0009" id="entity_MessageSent"><rect fill="#F1F1F1" height="122.95" rx="2" ry="2" style="stroke:#181818;stroke-width:0.4;" width="163.9992" x="556.4" y="192.8"/><ellipse cx="600.757" cy="210.6328" fill="#ADD1B2" rx="8.8" ry="8.8" style="stroke:#181818;stroke-width:0.8;"/><path d="M602.9695,207.3328 Q603.0945,207.1578 603.2445,207.0703 Q603.3945,206.9828 603.5695,206.9828 Q603.8695,206.9828 604.057,207.1953 Q604.2445,207.3953 604.2445,207.8828 L604.2445,209.0453 Q604.2445,209.5328 604.057,209.7453 Q603.8695,209.9578 603.5695,209.9578 Q603.2945,209.9578 603.132,209.7953 Q602.9695,209.6453 602.882,209.2328 Q602.8445,208.9453 602.6945,208.7953 Q602.432,208.4953 601.9445,208.3203 Q601.457,208.1453 600.957,208.1453 Q600.3445,208.1453 599.832,208.4078 Q599.332,208.6703 598.932,209.2703 Q598.5445,209.8703 598.5445,210.6953 L598.5445,211.5703 Q598.5445,212.5578 599.257,213.2203 Q599.9695,213.8703 601.2445,213.8703 Q601.9945,213.8703 602.5195,213.6703 Q602.832,213.5453 603.1695,213.1953 Q603.382,212.9828 603.4945,212.9203 Q603.6195,212.8578 603.782,212.8578 Q604.0445,212.8578 604.2445,213.0703 Q604.457,213.2703 604.457,213.5453 Q604.457,213.8203 604.182,214.1453 Q603.782,214.6078 603.1445,214.8703 Q602.282,215.2328 601.2445,215.2328 Q600.032,215.2328 599.0695,214.7328 Q598.282,214.3328 597.732,213.4828 Q597.182,212.6203 597.182,211.5953 L597.182,210.6703 Q597.182,209.6078 597.6695,208.6953 Q598.1695,207.7703 599.0445,207.2828 Q599.9195,206.7828 600.907,206.7828 Q601.4945,206.7828 602.007,206.9203 Q602.532,207.0453 602.9695,207.3328 Z " fill="#000000"/><text fill="#000000" font-family="sans-serif" font-size="9.6" font-style="italic" lengthAdjust="spacing" textLength="70.9734" x="615.9129" y="207.1594">&#171;Domain Event&#187;</text><text fill="#000000" font-family="sans-serif" font-size="11.2" lengthAdjust="spacing" textLength="68.4852" x="617.157" y="221.6547">MessageSent</text><line style="stroke:#181818;stroke-width:0.4;" x1="557.2" x2="719.5992" y1="228.4656" y2="228.4656"/><text fill="#000000" font-family="sans-serif" font-size="11.2" lengthAdjust="spacing" textLength="85.925" x="561.2" y="243.7516">messageId: Long</text><text fill="#000000" font-family="sans-serif" font-size="11.2" lengthAdjust="spacing" textLength="154.3992" x="561.2" y="258.6484">conversationId: ConversationId</text><text fill="#000000" font-family="sans-serif" font-size="11.2" lengthAdjust="spacing" textLength="82.7969" x="561.2" y="273.5453">senderId: UserId</text><text fill="#000000" font-family="sans-serif" font-size="11.2" lengthAdjust="spacing" textLength="88.3859" x="561.2" y="288.4422">receiverId: UserId</text><text fill="#000000" font-family="sans-serif" font-size="11.2" lengthAdjust="spacing" textLength="113.2961" x="561.2" y="303.3391">sentAt: LocalDateTime</text><line style="stroke:#181818;stroke-width:0.4;" x1="557.2" x2="719.5992" y1="309.35" y2="309.35"/></g><!--class MessageDelivered--><g class="entity" data-entity="MessageDelivered" data-source-line="49" data-uid="ent0010" id="entity_MessageDelivered"><rect fill="#F1F1F1" height="93.1563" rx="2" ry="2" style="stroke:#181818;stroke-width:0.4;" width="163.9992" x="748.4" y="208"/><ellipse cx="780.9397" cy="225.8328" fill="#ADD1B2" rx="8.8" ry="8.8" style="stroke:#181818;stroke-width:0.8;"/><path d="M783.1522,222.5328 Q783.2772,222.3578 783.4272,222.2703 Q783.5772,222.1828 783.7522,222.1828 Q784.0522,222.1828 784.2397,222.3953 Q784.4272,222.5953 784.4272,223.0828 L784.4272,224.2453 Q784.4272,224.7328 784.2397,224.9453 Q784.0522,225.1578 783.7522,225.1578 Q783.4772,225.1578 783.3147,224.9953 Q783.1522,224.8453 783.0647,224.4328 Q783.0272,224.1453 782.8772,223.9953 Q782.6147,223.6953 782.1272,223.5203 Q781.6397,223.3453 781.1397,223.3453 Q780.5272,223.3453 780.0147,223.6078 Q779.5147,223.8703 779.1147,224.4703 Q778.7272,225.0703 778.7272,225.8953 L778.7272,226.7703 Q778.7272,227.7578 779.4397,228.4203 Q780.1522,229.0703 781.4272,229.0703 Q782.1772,229.0703 782.7022,228.8703 Q783.0147,228.7453 783.3522,228.3953 Q783.5647,228.1828 783.6772,228.1203 Q783.8022,228.0578 783.9647,228.0578 Q784.2272,228.0578 784.4272,228.2703 Q784.6397,228.4703 784.6397,228.7453 Q784.6397,229.0203 784.3647,229.3453 Q783.9647,229.8078 783.3272,230.0703 Q782.4647,230.4328 781.4272,230.4328 Q780.2147,230.4328 779.2522,229.9328 Q778.4647,229.5328 777.9147,228.6828 Q777.3647,227.8203 777.3647,226.7953 L777.3647,225.8703 Q777.3647,224.8078 777.8522,223.8953 Q778.3522,222.9703 779.2272,222.4828 Q780.1022,221.9828 781.0897,221.9828 Q781.6772,221.9828 782.1897,222.1203 Q782.7147,222.2453 783.1522,222.5328 Z " fill="#000000"/><text fill="#000000" font-family="sans-serif" font-size="9.6" font-style="italic" lengthAdjust="spacing" textLength="70.9734" x="807.5951" y="222.3594">&#171;Domain Event&#187;</text><text fill="#000000" font-family="sans-serif" font-size="11.2" lengthAdjust="spacing" textLength="92.7555" x="796.7041" y="236.8547">MessageDelivered</text><line style="stroke:#181818;stroke-width:0.4;" x1="749.2" x2="911.5992" y1="243.6656" y2="243.6656"/><text fill="#000000" font-family="sans-serif" font-size="11.2" lengthAdjust="spacing" textLength="85.925" x="753.2" y="258.9516">messageId: Long</text><text fill="#000000" font-family="sans-serif" font-size="11.2" lengthAdjust="spacing" textLength="154.3992" x="753.2" y="273.8484">conversationId: ConversationId</text><text fill="#000000" font-family="sans-serif" font-size="11.2" lengthAdjust="spacing" textLength="137.5773" x="753.2" y="288.7453">deliveredAt: LocalDateTime</text><line style="stroke:#181818;stroke-width:0.4;" x1="749.2" x2="911.5992" y1="294.7563" y2="294.7563"/></g><!--class MessageRead--><g class="entity" data-entity="MessageRead" data-source-line="55" data-uid="ent0011" id="entity_MessageRead"><rect fill="#F1F1F1" height="108.0531" rx="2" ry="2" style="stroke:#181818;stroke-width:0.4;" width="163.9992" x="940.4" y="200.4"/><ellipse cx="982.8895" cy="218.2328" fill="#ADD1B2" rx="8.8" ry="8.8" style="stroke:#181818;stroke-width:0.8;"/><path d="M985.102,214.9328 Q985.227,214.7578 985.377,214.6703 Q985.527,214.5828 985.702,214.5828 Q986.002,214.5828 986.1895,214.7953 Q986.377,214.9953 986.377,215.4828 L986.377,216.6453 Q986.377,217.1328 986.1895,217.3453 Q986.002,217.5578 985.702,217.5578 Q985.427,217.5578 985.2645,217.3953 Q985.102,217.2453 985.0145,216.8328 Q984.977,216.5453 984.827,216.3953 Q984.5645,216.0953 984.077,215.9203 Q983.5895,215.7453 983.0895,215.7453 Q982.477,215.7453 981.9645,216.0078 Q981.4645,216.2703 981.0645,216.8703 Q980.677,217.4703 980.677,218.2953 L980.677,219.1703 Q980.677,220.1578 981.3895,220.8203 Q982.102,221.4703 983.377,221.4703 Q984.127,221.4703 984.652,221.2703 Q984.9645,221.1453 985.302,220.7953 Q985.5145,220.5828 985.627,220.5203 Q985.752,220.4578 985.9145,220.4578 Q986.177,220.4578 986.377,220.6703 Q986.5895,220.8703 986.5895,221.1453 Q986.5895,221.4203 986.3145,221.7453 Q985.9145,222.2078 985.277,222.4703 Q984.4145,222.8328 983.377,222.8328 Q982.1645,222.8328 981.202,222.3328 Q980.4145,221.9328 979.8645,221.0828 Q979.3145,220.2203 979.3145,219.1953 L979.3145,218.2703 Q979.3145,217.2078 979.802,216.2953 Q980.302,215.3703 981.177,214.8828 Q982.052,214.3828 983.0395,214.3828 Q983.627,214.3828 984.1395,214.5203 Q984.6645,214.6453 985.102,214.9328 Z " fill="#000000"/><text fill="#000000" font-family="sans-serif" font-size="9.6" font-style="italic" lengthAdjust="spacing" textLength="70.9734" x="999.9129" y="214.7594">&#171;Domain Event&#187;</text><text fill="#000000" font-family="sans-serif" font-size="11.2" lengthAdjust="spacing" textLength="72.2203" x="999.2895" y="229.2547">MessageRead</text><line style="stroke:#181818;stroke-width:0.4;" x1="941.2" x2="1103.5992" y1="236.0656" y2="236.0656"/><text fill="#000000" font-family="sans-serif" font-size="11.2" lengthAdjust="spacing" textLength="85.925" x="945.2" y="251.3516">messageId: Long</text><text fill="#000000" font-family="sans-serif" font-size="11.2" lengthAdjust="spacing" textLength="154.3992" x="945.2" y="266.2484">conversationId: ConversationId</text><text fill="#000000" font-family="sans-serif" font-size="11.2" lengthAdjust="spacing" textLength="74.6977" x="945.2" y="281.1453">readBy: UserId</text><text fill="#000000" font-family="sans-serif" font-size="11.2" lengthAdjust="spacing" textLength="114.543" x="945.2" y="296.0422">readAt: LocalDateTime</text><line style="stroke:#181818;stroke-width:0.4;" x1="941.2" x2="1103.5992" y1="302.0531" y2="302.0531"/></g><!--class MessageEdited--><g class="entity" data-entity="MessageEdited" data-source-line="62" data-uid="ent0012" id="entity_MessageEdited"><rect fill="#F1F1F1" height="108.0531" rx="2" ry="2" style="stroke:#181818;stroke-width:0.4;" width="163.9992" x="787.6" y="408.8"/><ellipse cx="827.5984" cy="426.6328" fill="#ADD1B2" rx="8.8" ry="8.8" style="stroke:#181818;stroke-width:0.8;"/><path d="M829.8109,423.3328 Q829.9359,423.1578 830.0859,423.0703 Q830.2359,422.9828 830.4109,422.9828 Q830.7109,422.9828 830.8984,423.1953 Q831.0859,423.3953 831.0859,423.8828 L831.0859,425.0453 Q831.0859,425.5328 830.8984,425.7453 Q830.7109,425.9578 830.4109,425.9578 Q830.1359,425.9578 829.9734,425.7953 Q829.8109,425.6453 829.7234,425.2328 Q829.6859,424.9453 829.5359,424.7953 Q829.2734,424.4953 828.7859,424.3203 Q828.2984,424.1453 827.7984,424.1453 Q827.1859,424.1453 826.6734,424.4078 Q826.1734,424.6703 825.7734,425.2703 Q825.3859,425.8703 825.3859,426.6953 L825.3859,427.5703 Q825.3859,428.5578 826.0984,429.2203 Q826.8109,429.8703 828.0859,429.8703 Q828.8359,429.8703 829.3609,429.6703 Q829.6734,429.5453 830.0109,429.1953 Q830.2234,428.9828 830.3359,428.9203 Q830.4609,428.8578 830.6234,428.8578 Q830.8859,428.8578 831.0859,429.0703 Q831.2984,429.2703 831.2984,429.5453 Q831.2984,429.8203 831.0234,430.1453 Q830.6234,430.6078 829.9859,430.8703 Q829.1234,431.2328 828.0859,431.2328 Q826.8734,431.2328 825.9109,430.7328 Q825.1234,430.3328 824.5734,429.4828 Q824.0234,428.6203 824.0234,427.5953 L824.0234,426.6703 Q824.0234,425.6078 824.5109,424.6953 Q825.0109,423.7703 825.8859,423.2828 Q826.7609,422.7828 827.7484,422.7828 Q828.3359,422.7828 828.8484,422.9203 Q829.3734,423.0453 829.8109,423.3328 Z " fill="#000000"/><text fill="#000000" font-family="sans-serif" font-size="9.6" font-style="italic" lengthAdjust="spacing" textLength="70.9734" x="847.1129" y="423.1594">&#171;Domain Event&#187;</text><text fill="#000000" font-family="sans-serif" font-size="11.2" lengthAdjust="spacing" textLength="77.2023" x="843.9984" y="437.6547">MessageEdited</text><line style="stroke:#181818;stroke-width:0.4;" x1="788.4" x2="950.7992" y1="444.4656" y2="444.4656"/><text fill="#000000" font-family="sans-serif" font-size="11.2" lengthAdjust="spacing" textLength="85.925" x="792.4" y="459.7516">messageId: Long</text><text fill="#000000" font-family="sans-serif" font-size="11.2" lengthAdjust="spacing" textLength="154.3992" x="792.4" y="474.6484">conversationId: ConversationId</text><text fill="#000000" font-family="sans-serif" font-size="11.2" lengthAdjust="spacing" textLength="82.7969" x="792.4" y="489.5453">editedBy: UserId</text><text fill="#000000" font-family="sans-serif" font-size="11.2" lengthAdjust="spacing" textLength="122.6422" x="792.4" y="504.4422">editedAt: LocalDateTime</text><line style="stroke:#181818;stroke-width:0.4;" x1="788.4" x2="950.7992" y1="510.4531" y2="510.4531"/></g><!--class MessageRepository--><g class="entity" data-entity="MessageRepository" data-source-line="69" data-uid="ent0013" id="entity_MessageRepository"><rect fill="#F1F1F1" height="48.4656" rx="2" ry="2" style="stroke:#181818;stroke-width:0.4;" width="124.5789" x="980" y="438.4"/><ellipse cx="992" cy="456.2328" fill="#B4A7E5" rx="8.8" ry="8.8" style="stroke:#181818;stroke-width:0.8;"/><path d="M992.7625,453.5453 L992.7625,458.8703 L994.1375,458.8703 Q994.625,458.8703 994.8375,459.0578 Q995.05,459.2453 995.05,459.5578 Q995.05,459.8578 994.8375,460.0453 Q994.625,460.2328 994.1375,460.2328 L990.025,460.2328 Q989.5375,460.2328 989.325,460.0453 Q989.1125,459.8578 989.1125,459.5453 Q989.1125,459.2453 989.325,459.0578 Q989.5375,458.8703 990.025,458.8703 L991.4,458.8703 L991.4,453.5453 L990.025,453.5453 Q989.5375,453.5453 989.325,453.3578 Q989.1125,453.1703 989.1125,452.8578 Q989.1125,452.5578 989.325,452.3703 Q989.5375,452.1828 990.025,452.1828 L994.1375,452.1828 Q994.625,452.1828 994.8375,452.3703 Q995.05,452.5578 995.05,452.8578 Q995.05,453.1703 994.8375,453.3578 Q994.625,453.5453 994.1375,453.5453 L992.7625,453.5453 Z " fill="#000000"/><text fill="#000000" font-family="sans-serif" font-size="9.6" font-style="italic" lengthAdjust="spacing" textLength="56.5641" x="1024.4074" y="452.7594">&#171;Repository&#187;</text><text fill="#000000" font-family="sans-serif" font-size="11.2" font-style="italic" lengthAdjust="spacing" textLength="98.9789" x="1003.2" y="467.2547">MessageRepository</text><line style="stroke:#181818;stroke-width:0.4;" x1="980.8" x2="1103.7789" y1="474.0656" y2="474.0656"/><line style="stroke:#181818;stroke-width:0.4;" x1="980.8" x2="1103.7789" y1="480.4656" y2="480.4656"/></g><g class="entity" data-entity="GMN22" data-source-line="87" data-uid="ent0023" id="entity_GMN22"><path d="M204.4,4.8 L204.4,95.7969 A0,0 0 0 0 204.4,95.7969 L320.8,95.7969 L324,163.176 L327.2,95.7969 L443.3426,95.7969 A0,0 0 0 0 443.3426,95.7969 L443.3426,12.8 L435.3426,4.8 L204.4,4.8 A0,0 0 0 0 204.4,4.8" fill="#FEFFDD" style="stroke:#181818;stroke-width:0.4;"/><path d="M435.3426,4.8 L435.3426,12.8 L443.3426,12.8 L435.3426,4.8" fill="#FEFFDD" style="stroke:#181818;stroke-width:0.4;"/><text fill="#000000" font-family="sans-serif" font-size="10.4" font-weight="bold" lengthAdjust="spacing" textLength="80.9148" x="209.2" y="20.0227">Business Rules:</text><text fill="#000000" font-family="sans-serif" font-size="10.4" lengthAdjust="spacing" textLength="184.5695" x="209.2" y="33.8555">&#8226; Sender must be different from receiver</text><text fill="#000000" font-family="sans-serif" font-size="10.4" lengthAdjust="spacing" textLength="166.1004" x="209.2" y="47.6883">&#8226; Message content cannot be empty</text><text fill="#000000" font-family="sans-serif" font-size="10.4" lengthAdjust="spacing" textLength="153.3797" x="209.2" y="61.5211">&#8226; SentAt must not be in the future</text><text fill="#000000" font-family="sans-serif" font-size="10.4" lengthAdjust="spacing" textLength="170.7113" x="209.2" y="75.3539">&#8226; Only sender can edit their message</text><text fill="#000000" font-family="sans-serif" font-size="10.4" lengthAdjust="spacing" textLength="222.1426" x="209.2" y="89.1867">&#8226; Status follows: SENT &#8594; DELIVERED &#8594; READ</text></g><g class="entity" data-entity="GMN25" data-source-line="96" data-uid="ent0026" id="entity_GMN25"><path d="M1130.4,586.8 L1130.4,608.4 L364.088,611.6 L1130.4,614.8 L1130.4,636.2984 A0,0 0 0 0 1130.4,636.2984 L1229.4605,636.2984 A0,0 0 0 0 1229.4605,636.2984 L1229.4605,594.8 L1221.4605,586.8 L1130.4,586.8 A0,0 0 0 0 1130.4,586.8" fill="#FEFFDD" style="stroke:#181818;stroke-width:0.4;"/><path d="M1221.4605,586.8 L1221.4605,594.8 L1229.4605,594.8 L1221.4605,586.8" fill="#FEFFDD" style="stroke:#181818;stroke-width:0.4;"/><text fill="#000000" font-family="sans-serif" font-size="10.4" font-weight="bold" lengthAdjust="spacing" textLength="52.5941" x="1135.2" y="602.0227">Invariants:</text><text fill="#000000" font-family="sans-serif" font-size="10.4" lengthAdjust="spacing" textLength="82.2605" x="1135.2" y="615.8555">&#8226; Must be positive</text><text fill="#000000" font-family="sans-serif" font-size="10.4" lengthAdjust="spacing" textLength="74.1863" x="1135.2" y="629.6883">&#8226; Cannot be null</text></g><g class="entity" data-entity="GMN28" data-source-line="102" data-uid="ent0029" id="entity_GMN28"><path d="M1133.2,438 L1133.2,487.4984 L1303.3746,487.4984 L1303.3746,446 L1295.3746,438 L1133.2,438" fill="#FEFFDD" style="stroke:#181818;stroke-width:0.4;"/><path d="M1295.3746,438 L1295.3746,446 L1303.3746,446 L1295.3746,438" fill="#FEFFDD" style="stroke:#181818;stroke-width:0.8;"/><text fill="#000000" font-family="sans-serif" font-size="10.4" font-weight="bold" lengthAdjust="spacing" textLength="52.5941" x="1138" y="453.2227">Invariants:</text><text fill="#000000" font-family="sans-serif" font-size="10.4" lengthAdjust="spacing" textLength="153.3746" x="1138" y="467.0555">&#8226; Cannot be empty or whitespace</text><text fill="#000000" font-family="sans-serif" font-size="10.4" lengthAdjust="spacing" textLength="129.6496" x="1138" y="480.8883">&#8226; Maximum 5000 characters</text></g><g class="entity" data-entity="GMN31" data-source-line="108" data-uid="ent0032" id="entity_GMN31"><path d="M1332,431.2 L1332,494.5313 L1506.7754,494.5313 L1506.7754,439.2 L1498.7754,431.2 L1332,431.2" fill="#FEFFDD" style="stroke:#181818;stroke-width:0.4;"/><path d="M1498.7754,431.2 L1498.7754,439.2 L1506.7754,439.2 L1498.7754,431.2" fill="#FEFFDD" style="stroke:#181818;stroke-width:0.8;"/><text fill="#000000" font-family="sans-serif" font-size="10.4" font-weight="bold" lengthAdjust="spacing" textLength="31.784" x="1336.8" y="446.4227">Rules:</text><text fill="#000000" font-family="sans-serif" font-size="10.4" lengthAdjust="spacing" textLength="157.9754" x="1336.8" y="460.2555">&#8226; Composite of two sorted UserIds</text><text fill="#000000" font-family="sans-serif" font-size="10.4" lengthAdjust="spacing" textLength="134.1285" x="1336.8" y="474.0883">&#8226; Format: "smallerId-largerId"</text><text fill="#000000" font-family="sans-serif" font-size="10.4" lengthAdjust="spacing" textLength="155.6852" x="1336.8" y="487.9211">&#8226; Ensures consistent identification</text></g><g class="entity" data-entity="GMN34" data-source-line="115" data-uid="ent0035" id="entity_GMN34"><path d="M1534.4,438 L1534.4,487.4984 L1696.2871,487.4984 L1696.2871,446 L1688.2871,438 L1534.4,438" fill="#FEFFDD" style="stroke:#181818;stroke-width:0.4;"/><path d="M1688.2871,438 L1688.2871,446 L1696.2871,446 L1688.2871,438" fill="#FEFFDD" style="stroke:#181818;stroke-width:0.8;"/><text fill="#000000" font-family="sans-serif" font-size="10.4" font-weight="bold" lengthAdjust="spacing" textLength="64.1469" x="1539.2" y="453.2227">Progression:</text><text fill="#000000" font-family="sans-serif" font-size="10.4" lengthAdjust="spacing" textLength="145.0871" x="1539.2" y="467.0555">SENT &#8594; DELIVERED &#8594; READ</text><text fill="#000000" font-family="sans-serif" font-size="10.4" lengthAdjust="spacing" textLength="139.882" x="1539.2" y="480.8883">(Transitions are unidirectional)</text></g><!--reverse link Message to UserId--><g class="link" data-entity-1="Message" data-entity-2="UserId" data-source-line="75" data-uid="lnk14" id="link_Message_UserId"><path codeLine="75" d="M230.8392,284.1164 C170.9832,307.1244 103.912,344.064 67.2,408.8 C43.52,450.552 43.08,475.296 67.2,516.8 C109.136,588.96 215.24,606.208 275.816,610.024" fill="none" id="Message-backto-UserId" style="stroke:#181818;stroke-width:0.8;"/><polygon fill="#181818" points="239.8,280.672,234.1715,279.4073,230.8392,284.1164,236.4677,285.3811,239.8,280.672" style="stroke:#181818;stroke-width:0.8;"/><text fill="#000000" font-family="sans-serif" font-size="10.4" lengthAdjust="spacing" textLength="40.4727" x="68" y="467.2227">senderId</text></g><!--reverse link Message to UserId--><g class="link" data-entity-1="Message" data-entity-2="UserId" data-source-line="76" data-uid="lnk15" id="link_Message_UserId"><path codeLine="76" d="M232.3672,315.8084 C200.3272,341.5764 174.864,369.368 157.6,408.8 C138.352,452.768 133.624,475.216 157.6,516.8 C182.824,560.544 237.04,585.776 275.888,598.88" fill="none" id="Message-backto-UserId-1" style="stroke:#181818;stroke-width:0.8;"/><polygon fill="#181818" points="239.848,309.792,234.1021,310.3066,232.3672,315.8084,238.1131,315.2938,239.848,309.792" style="stroke:#181818;stroke-width:0.8;"/><text fill="#000000" font-family="sans-serif" font-size="10.4" lengthAdjust="spacing" textLength="45.6625" x="158.4" y="467.2227">receiverId</text></g><!--reverse link Message to MessageContent--><g class="link" data-entity-1="Message" data-entity-2="MessageContent" data-source-line="77" data-uid="lnk16" id="link_Message_MessageContent"><path codeLine="77" d="M299.6941,354.9348 C292.2221,385.5828 286.648,408.448 281.112,431.192" fill="none" id="Message-backto-MessageContent" style="stroke:#181818;stroke-width:0.8;"/><polygon fill="#181818" points="301.968,345.608,297.7221,349.5134,299.6941,354.9348,303.94,351.0294,301.968,345.608" style="stroke:#181818;stroke-width:0.8;"/></g><!--reverse link Message to ConversationId--><g class="link" data-entity-1="Message" data-entity-2="ConversationId" data-source-line="78" data-uid="lnk17" id="link_Message_ConversationId"><path codeLine="78" d="M363.9526,354.5137 C376.2886,385.1617 385.656,408.448 394.808,431.192" fill="none" id="Message-backto-ConversationId" style="stroke:#181818;stroke-width:0.8;"/><polygon fill="#181818" points="360.368,345.608,359.1917,351.2557,363.9526,354.5137,365.1288,348.866,360.368,345.608" style="stroke:#181818;stroke-width:0.8;"/></g><!--reverse link Message to MessageStatus--><g class="link" data-entity-1="Message" data-entity-2="MessageStatus" data-source-line="79" data-uid="lnk18" id="link_Message_MessageStatus"><path codeLine="79" d="M414.9897,343.6253 C442.7577,370.6013 465.76,392.96 489.736,416.264" fill="none" id="Message-backto-MessageStatus" style="stroke:#181818;stroke-width:0.8;"/><polygon fill="#181818" points="408.104,336.936,409.3171,342.5759,414.9897,343.6253,413.7766,337.9854,408.104,336.936" style="stroke:#181818;stroke-width:0.8;"/></g><!--reverse link Message to LastEditedTime--><g class="link" data-entity-1="Message" data-entity-2="LastEditedTime" data-source-line="80" data-uid="lnk19" id="link_Message_LastEditedTime"><path codeLine="80" d="M416.533,304.6853 C472.101,334.7253 537.872,370.976 602.4,408.8 C614.48,415.88 627.368,423.728 639.376,431.176" fill="none" id="Message-backto-LastEditedTime" style="stroke:#181818;stroke-width:0.8;"/><polygon fill="none" points="408.088,300.12,410.7887,305.2177,416.533,304.6853,413.8323,299.5877,408.088,300.12" style="stroke:#181818;stroke-width:0.8;"/><text fill="#000000" font-family="sans-serif" font-size="10.4" lengthAdjust="spacing" textLength="36.4305" x="557.6" y="381.6227">optional</text></g><!--reverse link ConversationId to UserId--><g class="link" data-entity-1="ConversationId" data-entity-2="UserId" data-source-line="82" data-uid="lnk20" id="link_ConversationId_UserId"><path codeLine="82" d="M362.497,500.7249 C338.585,520.7569 319.104,537.52 317.6,540.8 C312.08,552.848 311.696,567.328 313.072,579.984" fill="none" id="ConversationId-backto-UserId" style="stroke:#181818;stroke-width:0.8;"/><polygon fill="#181818" points="369.856,494.56,364.1216,495.1895,362.497,500.7249,368.2315,500.0954,369.856,494.56" style="stroke:#181818;stroke-width:0.8;"/><text fill="#000000" font-family="sans-serif" font-size="10.4" lengthAdjust="spacing" textLength="53.7672" x="318.4" y="552.8227">participant1</text></g><!--reverse link ConversationId to UserId--><g class="link" data-entity-1="ConversationId" data-entity-2="UserId" data-source-line="83" data-uid="lnk21" id="link_ConversationId_UserId"><path codeLine="83" d="M398.2185,503.8176 C393.3305,522.5696 387.848,537.144 376,556 C370.72,564.408 363.896,572.48 356.84,579.72" fill="none" id="ConversationId-backto-UserId-1" style="stroke:#181818;stroke-width:0.8;"/><polygon fill="#181818" points="400.64,494.528,396.3327,498.3656,398.2185,503.8176,402.5258,499.98,400.64,494.528" style="stroke:#181818;stroke-width:0.8;"/><text fill="#000000" font-family="sans-serif" font-size="10.4" lengthAdjust="spacing" textLength="53.7672" x="384" y="552.8227">participant2</text></g><!--link MessageContent to GMN28--><g class="link" data-entity-1="MessageContent" data-entity-2="GMN28" data-source-line="102" data-uid="lnk30" id="link_MessageContent_GMN28"><path d="M294.488,431.016 C309.36,411.464 331.256,388.128 357.2,377.2 C433.632,345.008 1024.888,351.088 1103.6,377.2 C1139.584,389.136 1173.432,417.232 1194.928,437.992" fill="none" id="MessageContent-GMN28" style="stroke:#181818;stroke-width:0.8;stroke-dasharray:5.6,5.6;"/></g><!--link ConversationId to GMN31--><g class="link" data-entity-1="ConversationId" data-entity-2="GMN31" data-source-line="108" data-uid="lnk33" id="link_ConversationId_GMN31"><path d="M426.48,431.064 C440.328,411.528 460.936,388.192 486,377.2 C569.192,340.712 1217.328,348.736 1303.6,377.2 C1335.856,387.84 1366.464,411.336 1388.072,431.024" fill="none" id="ConversationId-GMN31" style="stroke:#181818;stroke-width:0.8;stroke-dasharray:5.6,5.6;"/></g><!--link MessageStatus to GMN34--><g class="link" data-entity-1="MessageStatus" data-entity-2="GMN34" data-source-line="115" data-uid="lnk36" id="link_MessageStatus_GMN34"><path d="M567.768,416.336 C580.768,400.888 597.328,385.504 616.4,377.2 C707.104,337.688 1413.344,344.752 1506.8,377.2 C1541.232,389.152 1572.992,417.088 1593.112,437.816" fill="none" id="MessageStatus-GMN34" style="stroke:#181818;stroke-width:0.8;stroke-dasharray:5.6,5.6;"/></g><!--SRC=[nLPHQzim47xthr3piirGw0Px2QNG9Xu4cdOaQM2FgdrEjCgIaUHqOGpsj1-mdx2Vrb-oasGhiUTatKDP24caEtrtzzsdSquoo9a0ajmi9ejF9ELKw-YatbpUTZQIcxif0L4LKLJIz86kW0pca5OA5fG_aB4iA1C3yZKY-78VDUuKjBRUv-UNgvM25JL0PbAQYulQsRuAxpJ9XkHQYbNOJwNOWDBKC2ciSTHQ1pSD8WDb7Uwq_Gu61IcmJQy9eGq8CsmI7FdrFgQvD3QVbF8nPhrW1UoiXffAXyDpjmnMffEC6S2WLr9oe29Oa5FZRHOEqLjhv_OjSb_O0PynChUal09oU_yPqZPl6slOusntjbtLCOn0nDmezWTEc_5ZE2mx0D6kyHY4GJioMvHzjDU0JeWjsX4nGM62Sacs0ESemh0O9zUJPJ9Bnc5dbboEzx6Tv0EuvyqhcoGRNFvlpHxMP5y1O-0M1x8Nh29hOZm_hHdGbyn88VpLjeTL-WyvUhc-O9RW0lJawGr7CsLuNrLEKzWnMahDZ5HRp7Yt2FdYENo_8ZFWBW-zPgMEci4SdvusasOOLDbltKcpPUzCq7rJf_oUK_NeR2mIBPs1CIIojESfZwBEE6fbLr9bMCfAAipRvpg-ixnSLHeVSTZzMSL1HqBY8yh8aiYyIJAAuxRJC8wZf- -_oDpnHOfA6t8F96DvZhS11qUkP17uSgvDXVMy9IaL6CcUWg8qsmOEBxY7guseFhC6abS6dxNEwLRmRTqe2-8aOtsOQbJfiVnmp2NdyX4VLNOMagSVFtTpqAtS34Gm6myYNxnYgxMnvTVYZEE9s535aB1G-RGksQaDYtIRer2Jg3W_2DiHJ1_ygCqEaOeyhb4I6lzz-5XJ-eKLLK7UdvsTaNHD5KtnNkY3GJjIZEDM8qUoS9M0TJMFacYfx0Zm36Zdyq6gWkBD7EY2ScxtJpbLA_jZu1mIeR59shPOC-swp3ByP3bBNTo_CL9VXZZ-g2J-MT8QpzWCZ_NkzK9HONk0GGbLG2h1CeRIytVcpIxcRm00]--></g></svg>